<svg width="224" height="37" viewBox="0 0 224 37" fill="none" xmlns="http://www.w3.org/2000/svg">
<path d="M64.4351 35.0484L63.7475 33.0681H59.4966L58.809 35.0484H57.0273L60.6531 25.1781H62.6222L66.1855 35.0484H64.4351ZM60.028 31.552H63.1849L61.5908 27.0965L60.028 31.552ZM73.1244 29.9431C73.562 30.1597 73.9058 30.4691 74.1559 30.8713C74.4059 31.2735 74.5309 31.7067 74.5309 32.2327C74.5309 33.0372 74.2496 33.7179 73.6558 34.2439C73.0619 34.7699 72.3743 35.0484 71.5303 35.0484H67.2482V25.1781H71.2178C72.0304 25.1781 72.7181 25.4566 73.2807 25.9517C73.8433 26.4777 74.1246 27.1274 74.1246 27.901C74.1246 28.7983 73.812 29.448 73.1244 29.9431ZM71.2178 26.7252H68.9048V29.3243H71.2178C71.5928 29.3243 71.8741 29.2005 72.1242 28.953C72.3743 28.7054 72.4993 28.396 72.4993 28.0247C72.4993 27.6534 72.3743 27.344 72.1242 27.0965C71.8741 26.849 71.5928 26.7252 71.2178 26.7252ZM71.5303 33.5322C71.9054 33.5322 72.218 33.4085 72.468 33.13C72.7493 32.8515 72.8744 32.5421 72.8744 32.1399C72.8744 31.7686 72.7493 31.4283 72.468 31.1807C72.218 30.9023 71.9054 30.7785 71.5303 30.7785H68.9048V33.5322H71.5303ZM82.1575 25.2091V26.7562H79.3444V35.0484H77.7191V26.7252H74.906V25.1781H82.1575V25.2091ZM91.0969 33.7798C90.0966 34.7699 88.8776 35.265 87.4398 35.265C86.0021 35.265 84.783 34.7699 83.7828 33.7798C82.7826 32.7897 82.2825 31.583 82.2825 30.1597C82.2825 28.7364 82.7826 27.5297 83.7828 26.5396C84.783 25.5494 86.0021 25.0544 87.4398 25.0544C88.8776 25.0544 90.0966 25.5494 91.0969 26.5396C92.0971 27.5297 92.5972 28.7364 92.5972 30.1597C92.6284 31.552 92.0971 32.7587 91.0969 33.7798ZM84.9393 32.6659C85.627 33.3466 86.4709 33.656 87.4711 33.656C88.4713 33.656 89.3152 33.3157 89.9716 32.6659C90.6593 31.9852 91.0031 31.1498 91.0031 30.1287C91.0031 29.1077 90.6593 28.2723 89.9716 27.6225C89.284 26.9418 88.4713 26.6014 87.4711 26.6014C86.4709 26.6014 85.627 26.9418 84.9393 27.6225C84.2517 28.3032 83.9391 29.1386 83.9391 30.1287C83.9391 31.1188 84.2517 31.9852 84.9393 32.6659ZM98.8172 35.234C97.3169 35.234 96.0666 34.739 95.0977 33.7798C94.0975 32.7897 93.6286 31.583 93.6286 30.1287C93.6286 28.6745 94.1287 27.4678 95.0977 26.5086C96.0979 25.5185 97.3169 25.0234 98.8172 25.0234C99.7236 25.0234 100.536 25.24 101.318 25.6423C102.099 26.0754 102.693 26.6324 103.099 27.375L101.662 28.1794C101.38 27.6844 101.005 27.3131 100.505 27.0346C100.005 26.7561 99.4423 26.6014 98.8172 26.6014C97.7545 26.6014 96.8793 26.9418 96.2229 27.5916C95.5665 28.2723 95.254 29.1077 95.254 30.1287C95.254 31.1498 95.5665 31.9852 96.2229 32.6659C96.8793 33.3466 97.7545 33.656 98.8172 33.656C99.4423 33.656 100.005 33.5013 100.536 33.2228C101.036 32.9444 101.443 32.5421 101.693 32.0471L103.131 32.8516C102.724 33.5632 102.13 34.1511 101.349 34.5842C100.568 35.0484 99.7236 35.234 98.8172 35.234ZM106.1 33.5013H110.507V35.0484H104.475V25.1781H110.445V26.7252H106.1V29.2933H110.069V30.8404H106.1V33.5013ZM115.664 25.2091C116.602 25.2091 117.384 25.5185 118.009 26.1373C118.634 26.7562 118.978 27.5297 118.978 28.4579C118.978 29.3552 118.665 30.1287 118.009 30.7785C117.384 31.3973 116.602 31.7067 115.664 31.7067H113.633V35.0484H112.007V25.1781H115.664V25.2091ZM115.664 30.1597C116.133 30.1597 116.54 30.005 116.852 29.6956C117.165 29.3552 117.321 28.953 117.321 28.4579C117.321 27.9629 117.165 27.5606 116.852 27.2203C116.54 26.8799 116.133 26.7252 115.664 26.7252H113.633V30.1597H115.664ZM126.26 29.9431C126.698 30.1597 127.042 30.4691 127.292 30.8713C127.542 31.2735 127.667 31.7067 127.667 32.2327C127.667 33.0372 127.386 33.7179 126.792 34.2439C126.198 34.7699 125.51 35.0484 124.666 35.0484H120.384V25.1781H124.354C125.166 25.1781 125.854 25.4566 126.417 25.9517C126.979 26.4777 127.261 27.1274 127.261 27.901C127.261 28.7983 126.917 29.448 126.26 29.9431ZM124.354 26.7252H122.041V29.3243H124.354C124.729 29.3243 125.01 29.2005 125.26 28.953C125.51 28.7054 125.635 28.396 125.635 28.0247C125.635 27.6534 125.51 27.344 125.26 27.0965C125.01 26.849 124.698 26.7252 124.354 26.7252ZM124.666 33.5322C125.041 33.5322 125.354 33.4085 125.604 33.13C125.885 32.8515 126.01 32.5421 126.01 32.1399C126.01 31.7686 125.885 31.4283 125.604 31.1807C125.354 30.9023 125.041 30.7785 124.666 30.7785H122.041V33.5322H124.666ZM135.043 35.0484V28.3651L130.355 35.0484H129.073V25.1781H130.699V31.8614L135.387 25.1781H136.669V35.0484H135.043ZM143.389 35.234C141.889 35.234 140.638 34.739 139.669 33.7798C138.669 32.7897 138.2 31.583 138.2 30.1287C138.2 28.6745 138.7 27.4678 139.669 26.5086C140.67 25.5185 141.889 25.0234 143.389 25.0234C144.295 25.0234 145.108 25.24 145.889 25.6423C146.671 26.0754 147.265 26.6324 147.671 27.375L146.233 28.1794C145.952 27.6844 145.577 27.3131 145.077 27.0346C144.577 26.7561 144.014 26.6014 143.389 26.6014C142.326 26.6014 141.451 26.9418 140.795 27.5916C140.138 28.2723 139.826 29.1077 139.826 30.1287C139.826 31.1498 140.138 31.9852 140.795 32.6659C141.451 33.3466 142.326 33.656 143.389 33.656C144.014 33.656 144.577 33.5013 145.108 33.2228C145.608 32.9444 146.014 32.5421 146.264 32.0471L147.702 32.8516C147.296 33.5632 146.702 34.1511 145.921 34.5842C145.139 35.0484 144.295 35.234 143.389 35.234Z" fill="#231F20"/>
<path d="M61.5979 3.67031C62.7621 3.67031 63.7323 4.05446 64.5084 4.82276C65.3061 5.59107 65.6942 6.55145 65.6942 7.7039C65.6942 8.83502 65.3061 9.7954 64.5084 10.585C63.7323 11.3533 62.7621 11.7375 61.5979 11.7375H59.0755V15.9418H57.0273V3.67031H61.5979ZM61.5979 9.83808C62.2016 9.83808 62.6974 9.64601 63.0855 9.24051C63.4736 8.83502 63.6676 8.32282 63.6676 7.7039C63.6676 7.08499 63.4736 6.57279 63.0855 6.18864C62.6974 5.78314 62.2016 5.56973 61.5979 5.56973H59.0755V9.83808H61.5979ZM75.439 15.0028C74.555 15.7711 73.434 16.1553 72.0542 16.1553C70.6744 16.1553 69.5533 15.7711 68.6694 15.0028C67.7854 14.2132 67.3542 13.1674 67.3542 11.8656V3.67031H69.3808V11.7588C69.3808 12.5058 69.5964 13.1034 70.0276 13.5516C70.4803 13.9997 71.1487 14.2131 72.0326 14.2131C72.9165 14.2131 73.5849 13.9997 74.0161 13.5516C74.4688 13.1034 74.6844 12.5058 74.6844 11.7588V3.67031H76.711V11.8656C76.7325 13.1887 76.3013 14.2345 75.439 15.0028ZM87.1457 3.67031V5.59107H83.6531V15.9205H81.6265V5.59107H78.1123V3.67031H87.1457ZM88.6333 3.67031H90.6598V15.9418H88.6333V3.67031ZM95.1873 13.9997H100.232V15.9205H93.1607V3.64896H95.1873V13.9997ZM111.098 15.9418H108.683L103.789 10.1155V15.9418H101.763V3.67031H103.789V9.17649L108.489 3.67031H110.904L105.902 9.64601L111.098 15.9418ZM121.705 14.3199C120.476 15.5363 118.946 16.1553 117.156 16.1553C115.367 16.1553 113.836 15.5363 112.586 14.3199C111.357 13.082 110.732 11.5668 110.732 9.7954C110.732 8.02403 111.357 6.50877 112.586 5.29228C113.836 4.05446 115.367 3.43555 117.156 3.43555C118.946 3.43555 120.476 4.05446 121.705 5.29228C122.956 6.50877 123.581 8.02403 123.581 9.7954C123.581 11.5881 122.956 13.082 121.705 14.3199ZM114.03 12.954C114.871 13.7863 115.927 14.1918 117.156 14.1918C118.385 14.1918 119.441 13.7863 120.282 12.954C121.123 12.1217 121.554 11.0546 121.554 9.7954C121.554 8.53623 121.123 7.49049 120.282 6.65816C119.441 5.82583 118.407 5.39899 117.156 5.39899C115.927 5.39899 114.871 5.82583 114.03 6.65816C113.189 7.49049 112.78 8.53623 112.78 9.7954C112.78 11.0546 113.189 12.1217 114.03 12.954ZM128.065 15.9418L123.753 3.67031H125.974L129.273 13.5089L132.593 3.67031H134.813L130.501 15.9418H128.065ZM145.959 14.3199C144.731 15.5363 143.2 16.1553 141.41 16.1553C139.621 16.1553 138.09 15.5363 136.84 14.3199C135.611 13.082 134.986 11.5668 134.986 9.7954C134.986 8.02403 135.611 6.50877 136.84 5.29228C138.09 4.05446 139.621 3.43555 141.41 3.43555C143.2 3.43555 144.731 4.05446 145.959 5.29228C147.21 6.50877 147.835 8.02403 147.835 9.7954C147.835 11.5881 147.21 13.082 145.959 14.3199ZM138.263 12.954C139.104 13.7863 140.16 14.1918 141.389 14.1918C142.618 14.1918 143.674 13.7863 144.515 12.954C145.356 12.1217 145.787 11.0546 145.787 9.7954C145.787 8.53623 145.356 7.49049 144.515 6.65816C143.674 5.82583 142.639 5.39899 141.389 5.39899C140.16 5.39899 139.104 5.82583 138.263 6.65816C137.422 7.49049 137.012 8.53623 137.012 9.7954C137.012 11.0546 137.422 12.1217 138.263 12.954Z" fill="#231F20"/>
<path d="M165.963 3.67031V15.9418H163.937V7.1917L160.164 13.3595H159.926L156.154 7.17036V15.9418H154.105V3.67031H156.305L160.034 9.7954L163.786 3.67031H165.963ZM178.791 14.3199C177.562 15.5363 176.031 16.1553 174.242 16.1553C172.452 16.1553 170.922 15.5363 169.671 14.3199C168.442 13.082 167.817 11.5668 167.817 9.7954C167.817 8.02403 168.442 6.50877 169.671 5.29228C170.922 4.05446 172.452 3.43555 174.242 3.43555C176.031 3.43555 177.562 4.05446 178.791 5.29228C180.041 6.50877 180.667 8.02403 180.667 9.7954C180.667 11.5881 180.041 13.082 178.791 14.3199ZM171.116 12.954C171.957 13.7863 173.013 14.1918 174.242 14.1918C175.471 14.1918 176.527 13.7863 177.368 12.954C178.209 12.1217 178.64 11.0546 178.64 9.7954C178.64 8.53623 178.209 7.49049 177.368 6.65816C176.527 5.82583 175.492 5.39899 174.242 5.39899C172.991 5.39899 171.957 5.82583 171.116 6.65816C170.275 7.49049 169.865 8.53623 169.865 9.7954C169.865 11.0546 170.275 12.1217 171.116 12.954ZM189.872 3.67031V5.59107H186.38V15.9205H184.353V5.59107H180.839V3.67031H189.872ZM201.018 14.3199C199.79 15.5363 198.259 16.1553 196.469 16.1553C194.68 16.1553 193.149 15.5363 191.899 14.3199C190.67 13.082 190.045 11.5668 190.045 9.7954C190.045 8.02403 190.67 6.50877 191.899 5.29228C193.149 4.05446 194.68 3.43555 196.469 3.43555C198.259 3.43555 199.79 4.05446 201.018 5.29228C202.269 6.50877 202.894 8.02403 202.894 9.7954C202.916 11.5881 202.29 13.082 201.018 14.3199ZM193.343 12.954C194.184 13.7863 195.241 14.1918 196.469 14.1918C197.698 14.1918 198.755 13.7863 199.596 12.954C200.436 12.1217 200.868 11.0546 200.868 9.7954C200.868 8.53623 200.436 7.49049 199.596 6.65816C198.755 5.82583 197.72 5.39899 196.469 5.39899C195.241 5.39899 194.184 5.82583 193.343 6.65816C192.503 7.49049 192.093 8.53623 192.093 9.7954C192.093 11.0546 192.503 12.1217 193.343 12.954ZM211.82 15.9418L209.189 11.4814H206.775V15.9418H204.77V3.67031H209.728C210.828 3.67031 211.777 4.05446 212.553 4.82276C213.329 5.59107 213.717 6.50877 213.717 7.61854C213.717 8.40818 213.48 9.11246 213.027 9.77406C212.574 10.4143 211.992 10.8838 211.259 11.1826L214.083 15.9418H211.82ZM206.796 5.56973V9.66735H209.728C210.267 9.66735 210.742 9.47527 211.108 9.06978C211.475 8.66428 211.669 8.19477 211.669 7.61854C211.669 7.04231 211.475 6.55144 211.108 6.16729C210.72 5.7618 210.267 5.56973 209.728 5.56973H206.796ZM219.581 16.1553C218.395 16.1553 217.382 15.8778 216.541 15.3443C215.722 14.8107 215.14 14.0638 214.816 13.1461L216.563 12.1217C217.059 13.5089 218.093 14.1918 219.646 14.1918C220.422 14.1918 220.982 14.0424 221.37 13.7436C221.759 13.4448 221.953 13.0393 221.953 12.5698C221.953 12.0576 221.737 11.6948 221.327 11.4387C220.918 11.1613 220.185 10.8838 219.128 10.5637C218.546 10.393 218.05 10.2222 217.684 10.0728C217.317 9.92345 216.929 9.71003 216.52 9.43259C216.11 9.15515 215.808 8.81367 215.614 8.40818C215.42 8.00269 215.312 7.51183 215.312 6.97828C215.312 5.88985 215.7 5.03618 216.476 4.39593C217.253 3.75567 218.201 3.43555 219.301 3.43555C220.292 3.43555 221.155 3.67031 221.909 4.16117C222.642 4.63069 223.225 5.29228 223.634 6.14596L221.909 7.12767C221.392 5.97522 220.53 5.42033 219.301 5.42033C218.719 5.42033 218.244 5.56972 217.878 5.84717C217.533 6.12461 217.339 6.48742 217.339 6.95694C217.339 7.40512 217.511 7.76793 217.878 8.04537C218.244 8.30148 218.891 8.57892 219.84 8.8777C220.314 9.02709 220.659 9.15515 220.875 9.21917C221.09 9.2832 221.414 9.41125 221.802 9.56064C222.211 9.73138 222.513 9.88077 222.707 10.0515C222.901 10.2222 223.117 10.4143 223.354 10.6704C223.591 10.9052 223.764 11.204 223.85 11.5027C223.936 11.8015 224.001 12.1643 224.001 12.5698C224.001 13.6796 223.591 14.5546 222.772 15.2162C221.931 15.8351 220.875 16.1553 219.581 16.1553Z" fill="#D16527"/>
<path d="M34.1612 7.92689C31.3643 5.15821 28.9403 1.67891 29.9472 0.682184C30.9541 -0.31454 34.4689 2.08498 37.2658 4.85366C40.0627 7.62234 42.4866 11.1016 41.4797 12.0984C40.4729 13.0951 36.9581 10.6956 34.1612 7.92689ZM36.9674 5.15821C33.5832 1.81734 30.7863 0.488377 30.2735 0.995968C29.7608 1.50356 31.1126 4.27224 34.4875 7.62234C37.8624 10.9632 40.6593 12.3014 41.1814 11.7938C41.6942 11.277 40.333 8.50831 36.9674 5.15821Z" fill="#231F20"/>
<path d="M29.9514 0.681641L28.1055 2.50897L28.4224 2.82275L30.2684 0.995424L29.9514 0.681641Z" fill="#231F20"/>
<path d="M41.1702 11.7832L39.3242 13.6105L39.6412 13.9243L41.4871 12.097L41.1702 11.7832Z" fill="#231F20"/>
<path d="M10.0234 31.8208C9.55725 31.3593 9.23094 30.7594 9.10042 30.1134C8.9699 29.4674 9.03516 28.7937 9.2962 28.1938C9.54792 27.5847 9.9861 27.0679 10.5362 26.6987C11.0862 26.3296 11.7388 26.1357 12.4008 26.1357C13.0627 26.1357 13.7153 26.3296 14.2653 26.6987C14.8154 27.0679 15.2536 27.5847 15.5053 28.1938C15.757 28.8029 15.8223 29.4674 15.7011 30.1134C15.5799 30.7594 15.2536 31.3501 14.7781 31.8208C14.1442 32.4483 13.2864 32.799 12.4008 32.799C11.5151 32.799 10.6574 32.4483 10.0234 31.8208ZM14.4705 27.4278C14.0602 27.0217 13.5382 26.7449 12.9788 26.6341C12.4101 26.5234 11.8227 26.5787 11.2913 26.8002C10.7599 27.0217 10.3031 27.3909 9.97678 27.8616C9.6598 28.3415 9.48266 28.8952 9.48266 29.4674C9.48266 30.0396 9.65048 30.5933 9.97678 31.0732C10.2938 31.5531 10.7506 31.9223 11.2913 32.1345C11.8227 32.356 12.4101 32.4114 12.9788 32.3007C13.5475 32.1899 14.0696 31.9131 14.4705 31.507C15.0205 30.9625 15.3282 30.2334 15.3282 29.4674C15.3188 28.7014 15.0112 27.9723 14.4705 27.4278Z" fill="#D16527"/>
<path d="M33.2042 8.87849C30.4073 6.10982 27.9833 2.63051 28.9902 1.63379L29.3072 1.94757C28.7944 2.45516 30.1462 5.22384 33.5212 8.57394C36.8961 11.924 39.693 13.253 40.2151 12.7454L40.532 13.0592C39.5718 13.9821 36.2155 11.8687 33.2042 8.87849Z" fill="#231F20"/>
<path d="M39.3247 13.6126C38.8027 14.1202 36.0151 12.782 32.6308 9.44113C29.2559 6.10026 27.9041 3.33158 28.4169 2.81476L28.0999 2.50098L21.6111 8.92431C21.1915 9.33961 21.3221 10.1702 22.0026 11.3977C22.0026 11.3977 22.1052 11.6376 22.245 11.6099C22.3569 11.5915 22.4129 11.3607 22.4129 11.3607C22.4595 11.2131 22.6366 10.8808 22.8231 10.8624C22.9909 10.8439 23.2053 11.0377 23.4384 11.3884C24.4173 12.8281 25.5454 14.1756 26.7947 15.3938C27.988 16.5935 29.2932 17.6733 30.701 18.6239C31.2604 18.9931 31.2977 19.2053 31.279 19.2884C31.251 19.4637 30.9527 19.6114 30.8035 19.6576C30.8035 19.6576 30.5984 19.7129 30.5611 19.7868C30.5052 19.9067 30.7756 20.0267 30.7756 20.0267C31.9409 20.6358 32.7427 20.7466 33.1436 20.3497L39.6324 13.9264L39.3247 13.6126ZM31.4002 19.8421C31.568 19.7314 31.6799 19.556 31.7172 19.353C31.7731 18.9931 31.5121 18.6331 30.9434 18.264C29.5636 17.3319 28.277 16.2705 27.1116 15.0892C25.881 13.8895 24.7809 12.579 23.8206 11.1577C23.4757 10.6224 23.1307 10.3825 22.7765 10.4286C22.6553 10.4471 22.5527 10.4932 22.4501 10.5671C22.3569 10.6317 22.273 10.724 22.2078 10.8162C21.8255 10.0318 21.7136 9.45036 21.9374 9.23809L27.8948 3.34081C28.0626 4.82667 30.0763 7.51228 32.3232 9.74568C34.5793 11.9791 37.2923 13.9633 38.7933 14.1294L32.836 20.0267C32.6308 20.239 32.1088 20.1651 31.4002 19.8421Z" fill="#231F20"/>
<path d="M27.6327 14.3977C27.2225 13.9916 26.9428 13.4656 26.8216 12.9026C26.7097 12.3396 26.7656 11.749 26.9894 11.2137C27.2131 10.6784 27.586 10.2262 28.0708 9.9032C28.5556 9.58018 29.1243 9.41406 29.7117 9.41406C30.299 9.41406 30.8677 9.58941 31.3525 9.9032C31.8373 10.2262 32.2102 10.6784 32.434 11.2137C32.6577 11.749 32.7137 12.3304 32.6018 12.9026C32.4899 13.4656 32.2102 13.9916 31.7907 14.3977C31.2407 14.9422 30.4855 15.2467 29.7117 15.2467C28.9379 15.2467 28.1827 14.9422 27.6327 14.3977ZM31.4831 10.5769C31.1288 10.2262 30.6906 9.99549 30.2058 9.9032C29.721 9.81091 29.2176 9.85705 28.7607 10.0416C28.3039 10.2262 27.9124 10.5492 27.642 10.9553C27.3716 11.3614 27.2225 11.8413 27.2225 12.3304C27.2225 12.8195 27.3716 13.2994 27.642 13.7055C27.9124 14.1116 28.3039 14.4346 28.7607 14.6192C29.2176 14.8038 29.721 14.8591 30.2058 14.7576C30.6906 14.6653 31.1381 14.4254 31.4831 14.0839C31.9492 13.6225 32.2102 12.9857 32.2102 12.3304C32.2196 11.6751 31.9492 11.0476 31.4831 10.5769Z" fill="#231F20"/>
<path d="M9.38786 32.4946C8.79119 31.904 8.38098 31.1472 8.21316 30.3166C8.04535 29.4952 8.12925 28.6369 8.45556 27.8617C8.78186 27.0865 9.33192 26.422 10.0405 25.9513C10.749 25.4806 11.5788 25.2314 12.4271 25.2314C13.2755 25.2314 14.1053 25.4806 14.8138 25.9513C15.5224 26.422 16.0724 27.0865 16.3987 27.8617C16.725 28.6369 16.8089 29.4952 16.6411 30.3166C16.4733 31.138 16.0631 31.8947 15.4664 32.4946C14.6647 33.2883 13.5646 33.7405 12.4271 33.7405C11.2897 33.7405 10.199 33.2883 9.38786 32.4946ZM15.1495 26.7911C14.6087 26.2559 13.9281 25.8959 13.1823 25.7483C12.4365 25.6006 11.6627 25.6744 10.9634 25.9698C10.2642 26.2559 9.65822 26.745 9.23869 27.3726C8.81915 28.0001 8.58608 28.7384 8.58608 29.486C8.58608 30.2428 8.80983 30.9718 9.23869 31.5994C9.65822 32.227 10.2642 32.7161 10.9634 33.0022C11.6627 33.2883 12.4365 33.3621 13.1823 33.2237C13.9281 33.076 14.618 32.7161 15.1495 32.1808C15.8673 31.461 16.2682 30.5012 16.2682 29.486C16.2775 28.48 15.8673 27.511 15.1495 26.7911Z" fill="#231F20"/>
<path d="M28.2348 13.7969C27.9458 13.5108 27.7407 13.1417 27.6661 12.7356C27.5822 12.3388 27.6288 11.9142 27.7873 11.5451C27.9458 11.1667 28.2162 10.8437 28.5611 10.6222C28.9061 10.3915 29.3069 10.2715 29.7172 10.2715C30.1274 10.2715 30.5376 10.3915 30.8732 10.6222C31.2182 10.8529 31.4885 11.1759 31.647 11.5451C31.8055 11.9235 31.8428 12.3388 31.7682 12.7356C31.6843 13.1325 31.4885 13.5016 31.1995 13.7969C31.0037 13.9907 30.7706 14.1476 30.5189 14.2492C30.2672 14.3507 29.9875 14.406 29.7172 14.406C29.4375 14.406 29.1671 14.3507 28.9154 14.2492C28.6543 14.1384 28.4306 13.9815 28.2348 13.7969ZM30.8639 11.1851C30.6308 10.9544 30.3418 10.8068 30.0248 10.7422C29.7078 10.6776 29.3722 10.7145 29.0739 10.8344C28.7755 10.9544 28.5145 11.1667 28.3374 11.4343C28.1602 11.702 28.0577 12.0158 28.0577 12.3388C28.0577 12.6618 28.1509 12.9756 28.3374 13.2432C28.5238 13.5108 28.7755 13.7231 29.0739 13.8431C29.3722 13.9631 29.7078 14 30.0248 13.9354C30.3418 13.8708 30.6401 13.7139 30.8639 13.4924C31.0224 13.3447 31.1436 13.1601 31.2275 12.9663C31.3114 12.7725 31.358 12.551 31.358 12.3388C31.358 12.1265 31.3207 11.9142 31.2368 11.7112C31.1529 11.5082 31.0317 11.3328 30.8639 11.1851Z" fill="#231F20"/>
<path d="M28.0191 16.2887C26.313 17.9591 24.6068 19.6295 22.9194 21.3092C21.8472 22.3798 20.7751 23.4595 19.8801 24.6778C18.5469 26.4774 17.7358 28.5816 17.3442 30.7689C17.2883 31.0919 17.7824 31.2118 17.8384 30.8981C18.202 28.7477 19.0504 26.7081 20.3183 24.9269C21.2226 23.6718 22.36 22.5828 23.4601 21.4846C25.0916 19.851 26.7325 18.2452 28.3827 16.6394C28.4293 16.5932 28.4572 16.5286 28.4572 16.464C28.4572 16.3994 28.4293 16.3348 28.3827 16.2887C28.336 16.2425 28.2708 16.2148 28.2055 16.2148C28.1309 16.2241 28.0657 16.2425 28.0191 16.2887Z" fill="#231F20"/>
<path d="M25.4289 13.742C23.8067 15.3755 22.1752 16.9998 20.5343 18.6149C19.4808 19.6485 18.4274 20.7098 17.234 21.5866C15.4254 22.934 13.309 23.7369 11.0808 24.1153C10.7545 24.1707 10.8944 24.6506 11.2114 24.6044C13.3463 24.263 15.3694 23.46 17.1594 22.2603C18.4646 21.3743 19.5834 20.2576 20.7022 19.1686C22.4083 17.4982 24.0957 15.8093 25.7739 14.1204C26.0069 13.8712 25.6527 13.5113 25.4289 13.742Z" fill="#231F20"/>
<path d="M8.56265 33.3147C7.91004 32.6595 7.44389 31.8473 7.19217 30.9613C6.94045 30.0754 6.92181 29.1433 7.13624 28.248L7.56509 28.3496C7.36931 29.1709 7.38796 30.0292 7.62103 30.8506C7.85411 31.6627 8.28296 32.4103 8.87963 33.0102C10.0637 34.1822 11.8723 34.6806 13.5971 34.3114L13.6903 34.736C11.8164 35.1328 9.84922 34.5883 8.56265 33.3147Z" fill="#231F20"/>
<path d="M11.3288 24.5292C11.711 24.16 12.2052 23.7816 12.2891 23.2371C12.3637 22.7941 11.9348 22.3419 11.5059 22.2958C10.9559 22.2312 10.5643 22.6465 10.2194 23.0156C9.42691 23.8462 8.60649 24.6491 7.78607 25.452C7.20804 26.0242 6.61137 26.5872 6.03335 27.1594C5.72569 27.464 5.18496 27.8608 5.14766 28.3315C5.12902 28.5714 5.19428 28.8114 5.3248 29.0052C5.46465 29.2082 5.66043 29.3467 5.8935 29.4205C6.49017 29.6235 7.13346 28.8668 7.48773 28.5161C7.52503 28.4699 7.55299 28.4053 7.55299 28.3407C7.55299 28.2761 7.52502 28.2207 7.47841 28.1746C7.4318 28.1284 7.37586 28.1007 7.3106 28.1007C7.24534 28.1007 7.18007 28.1192 7.13346 28.1561C6.84445 28.4422 6.26642 29.1713 5.81892 28.8206C5.37142 28.4791 5.81892 28.0915 6.07064 27.8331C6.67663 27.1963 7.32924 26.5964 7.96321 25.9781C8.86754 25.0921 9.77186 24.2061 10.6482 23.2925C10.7787 23.154 10.9093 23.0248 11.0584 22.9141C11.3102 22.7295 11.8322 22.8033 11.767 23.2279C11.711 23.597 11.2076 23.9385 10.9559 24.1785C10.9279 24.2061 10.9093 24.2246 10.8999 24.2615C10.8906 24.2892 10.8813 24.3261 10.8813 24.3538C10.8813 24.3907 10.8906 24.4184 10.8999 24.4461C10.9093 24.4738 10.9279 24.5015 10.9559 24.5292C10.9745 24.5568 11.0025 24.5753 11.0398 24.5845C11.0678 24.5938 11.1051 24.603 11.133 24.603C11.1703 24.603 11.1983 24.5938 11.2262 24.5845C11.2729 24.5661 11.3008 24.5568 11.3288 24.5292Z" fill="#231F20"/>
<path d="M17.8219 30.9438C18.0643 30.6669 18.3346 30.4177 18.6423 30.2055C18.9873 30.0024 19.3788 30.427 19.3229 30.7592C19.2669 30.9438 19.1551 31.1007 19.0059 31.2207C18.1389 32.1251 17.1879 32.9649 16.3022 33.8601C15.6217 34.5431 14.9597 35.2445 14.2605 35.909C13.9435 36.2135 13.6638 36.4811 13.235 36.1397C12.6849 35.6875 13.4587 35.0507 13.785 34.7276C14.0181 34.4969 13.6545 34.137 13.4308 34.3677C13.0765 34.7276 12.4239 35.2814 12.5264 35.8443C12.573 36.0935 12.7036 36.3243 12.89 36.4996C13.0765 36.675 13.3189 36.7857 13.5706 36.8226C14.0647 36.8872 14.4097 36.4719 14.7266 36.1674C15.3326 35.5952 15.9013 34.9861 16.4887 34.3954C17.2998 33.5833 18.1109 32.7619 18.9406 31.9867C19.3508 31.599 19.8543 31.2207 19.8356 30.6023C19.817 30.0947 19.3136 29.6979 18.8474 29.6517C18.288 29.5964 17.7939 30.2516 17.4583 30.5931C17.2345 30.8238 17.5981 31.1837 17.8219 30.9438Z" fill="#231F20"/>
<path d="M27.1395 15.7082C25.2749 17.6185 23.2891 19.3997 21.4245 21.3193C20.5295 22.2053 19.6811 23.1374 18.8887 24.1157C18.1801 24.9925 17.7699 26.063 17.6953 27.1797C17.8818 26.5429 18.4878 25.4816 19.0099 24.7802C19.9049 23.645 20.8651 22.5745 21.8907 21.5501C23.718 19.6766 25.6758 17.9323 27.4844 16.0589C27.7175 15.8281 27.3632 15.4682 27.1395 15.7082Z" fill="#231F20"/>
<path d="M33.2659 3.9586C32.4735 4.15241 31.3268 2.99879 31.3268 2.99879C31.2149 3.06339 32.5854 4.65077 33.4524 4.36467C34.3754 4.06935 33.8533 2.80498 33.7507 2.82344C33.7507 2.83267 34.0584 3.77402 33.2659 3.9586Z" fill="#231F20"/>
<path d="M38.2865 8.9319C38.1001 9.71636 39.2747 10.87 39.2747 10.87C39.2095 10.9807 37.5966 9.61484 37.8763 8.74732C38.1746 7.83366 39.4519 8.35971 39.4332 8.452C39.4332 8.46123 38.473 8.15667 38.2865 8.9319Z" fill="#D16527"/>
<path d="M28.9777 13.0602C29.7329 13.7062 30.6558 13.1709 30.8889 12.8848C30.6745 13.4755 29.5744 14.0292 28.8099 13.3186C28.148 12.7002 28.3904 12.0173 28.6421 11.7773C28.5675 11.9988 28.5489 12.2388 28.6141 12.4695C28.6701 12.7002 28.8006 12.9033 28.9777 13.0602Z" fill="#D16527"/>
<path d="M11.121 30.7771C12.5288 31.9676 14.2255 30.9801 14.6544 30.4541C14.2535 31.5523 12.2024 32.5767 10.7947 31.257C9.56405 30.1126 10.0115 28.8483 10.487 28.4053C10.4963 28.4053 9.95561 29.7804 11.121 30.7771Z" fill="#231F20"/>
<path d="M15.8518 23.9671C17.0825 23.3118 18.2106 22.4812 19.1988 21.5029C18.6301 22.2689 17.791 23.3949 15.9264 24.3731C15.1713 24.7607 13.6237 25.0653 12.4023 24.77C14.1551 24.6592 15.2552 24.2716 15.8518 23.9671Z" fill="#231F20"/>
<path d="M31.1562 17.4606L31.9394 17.9774L35.2863 14.6642C35.8271 14.1289 34.41 15.4118 33.6641 14.978L31.1562 17.4606Z" fill="#231F20"/>
<path d="M39.8387 12.597L40.3701 12.071C40.3701 12.071 39.3819 11.0927 38.8039 11.6649L38.375 12.0894C38.8691 12.3479 39.3259 12.6063 39.8387 12.597Z" fill="#231F20"/>
<path d="M38.8693 13.5574L39.3541 13.0775C39.0558 13.0129 38.7761 12.9114 38.5057 12.773C38.3472 12.6899 38.1981 12.6068 38.0396 12.5146C38.0116 12.5146 37.993 12.5053 37.965 12.4961L37.4336 13.0221C37.8904 13.2713 38.3659 13.4467 38.8693 13.5574Z" fill="#231F20"/>
<path d="M37.0186 13.4355L32.2266 18.17C32.2266 18.17 33.4292 18.936 34.4175 17.9577L38.3891 14.0262C37.9043 13.8878 37.4474 13.6847 37.0186 13.4355Z" fill="#231F20"/>
<path d="M37.9986 11.9135C38.1665 11.7382 38.3249 11.5628 38.4928 11.3875C38.8097 11.046 38.3156 10.7691 38.0919 10.9814C37.8774 11.1937 37.7003 11.3783 37.4766 11.5997C37.5978 11.6644 37.9334 11.8766 37.9986 11.9135Z" fill="#231F20"/>
<path d="M37.0933 12.8287C37.2518 12.6719 37.4103 12.515 37.5967 12.3212C37.4196 12.2196 37.2424 12.1273 37.0653 12.0166L36.5898 12.5057C36.739 12.6165 37.0933 12.8287 37.0933 12.8287Z" fill="#231F20"/>
<path d="M36.1765 12.9189L34.834 14.2756C34.3958 14.7186 36.074 13.8418 36.5215 13.3988L36.6893 13.2327C36.5122 13.1312 36.3443 13.0297 36.1765 12.9189Z" fill="#231F20"/>
<path d="M37.2264 11.4713C37.4222 11.2775 37.6086 11.1021 37.7858 10.936C38.1307 10.6222 37.9163 10.5023 37.6366 10.7699L37.0586 11.3421C37.1239 11.3882 37.1705 11.4344 37.2264 11.4713Z" fill="#231F20"/>
<path d="M35.8863 12.7261C35.849 12.6984 35.8024 12.6707 35.7651 12.6338L34.1709 14.2212C33.6302 14.7564 34.2641 14.4427 34.8048 13.8982C34.8048 13.8982 35.299 13.3906 35.9236 12.7538C35.9143 12.7445 35.8956 12.7353 35.8863 12.7261Z" fill="#231F20"/>
<path d="M36.3553 12.3392C36.5138 12.1731 36.663 12.0255 36.8215 11.8686L36.6536 11.7578L36.1875 12.21C36.2341 12.2654 36.2994 12.3023 36.3553 12.3392Z" fill="#231F20"/>
<path d="M36.6905 11.0922L37.4456 10.3447L37.2032 10.0586C36.9329 10.317 36.6718 10.5754 36.3828 10.8615C36.476 10.9446 36.5879 11.0184 36.6905 11.0922Z" fill="#231F20"/>
<path d="M35.8155 11.9595L36.3376 11.4426C36.235 11.3688 36.1325 11.295 36.0392 11.2119L35.5078 11.738C35.6104 11.8118 35.7129 11.8949 35.8155 11.9595Z" fill="#231F20"/>
<path d="M35.1221 12.1182C33.7144 13.5117 32.4465 14.7761 32.4465 14.7761C31.5421 15.6621 30.0971 17.6001 31.0014 16.7049L35.4205 12.3581C35.3273 12.2751 35.2247 12.192 35.1221 12.1182Z" fill="#231F20"/>
<path d="M29.5194 2.89776L30.2745 2.15021L29.9109 1.74414C29.7245 1.92872 29.5567 2.09484 29.3516 2.28865C29.3702 2.50091 29.4261 2.70395 29.5194 2.89776Z" fill="#231F20"/>
<path d="M28.6068 3.79243L29.1382 3.26638C29.045 3.10026 28.9518 2.93414 28.8679 2.75879L28.4297 3.19255C28.4577 3.40481 28.5136 3.60785 28.6068 3.79243Z" fill="#231F20"/>
<path d="M27.9712 3.6543L23.0859 8.49025L23.3097 9.03476C24.7454 7.62273 26.6287 5.74003 28.2788 4.11574C28.1763 3.96808 28.0737 3.81119 27.9712 3.6543Z" fill="#231F20"/>
<path d="M28.3134 4.52148L25.9827 6.83794C25.3767 7.43782 26.1692 7.03175 26.7752 6.43187L28.4346 4.78912C28.388 4.70606 28.3507 4.61377 28.3134 4.52148Z" fill="#231F20"/>
<path d="M28.879 4.35462L29.3358 3.9024L29.2426 3.71783L29.2053 3.63477L28.7578 4.07775C28.7858 4.17927 28.8231 4.27156 28.879 4.35462Z" fill="#231F20"/>
<path d="M29.779 3.46923L30.5248 2.72169L30.3104 2.53711L29.6484 3.19236C29.6857 3.29388 29.7323 3.38617 29.779 3.46923Z" fill="#231F20"/>
<path d="M29.9917 3.94072C30.2714 3.66385 30.5231 3.41467 30.7841 3.15626L30.6909 2.97168L29.8984 3.75614C29.9357 3.81151 29.9544 3.88534 29.9917 3.94072Z" fill="#231F20"/>
<path d="M29.0893 4.84471L29.5834 4.35557C29.5461 4.3002 29.5089 4.24483 29.4716 4.18945L28.9961 4.66936C29.0054 4.69704 29.052 4.78933 29.0893 4.84471Z" fill="#231F20"/>
<path d="M28.573 5.07617L26.9601 6.682C26.3821 7.2542 27.2212 6.69123 27.7992 6.11904L28.6942 5.23306C28.6383 5.18692 28.601 5.13155 28.573 5.07617Z" fill="#231F20"/>
<path d="M7.55092 8.00892C4.75403 10.7776 1.23926 13.1771 0.23238 12.1804C-0.774502 11.1837 1.64947 7.70437 4.44637 4.93569C7.24326 2.16701 10.758 -0.232509 11.7649 0.764215C12.7718 1.76094 10.3478 5.24947 7.55092 8.00892ZM4.75402 5.24024C1.37911 8.58111 0.0272747 11.3498 0.540039 11.8666C1.0528 12.3834 3.8497 11.036 7.23394 7.69514C10.6089 4.35427 11.9607 1.58559 11.4479 1.06877C10.9352 0.55195 8.13827 1.89937 4.75402 5.24024Z" fill="#231F20"/>
<path d="M0.54745 11.8682L0.230469 12.1819L2.07642 14.0093L2.3934 13.6955L0.54745 11.8682Z" fill="#231F20"/>
<path d="M11.7662 0.764648L11.4492 1.07843L13.2952 2.90576L13.6121 2.59198L11.7662 0.764648Z" fill="#231F20"/>
<path d="M31.6883 31.9133C31.2221 32.3747 30.6161 32.6977 29.9635 32.8269C29.3109 32.9561 28.6303 32.8915 28.0243 32.6331C27.409 32.384 26.8869 31.9502 26.514 31.4057C26.1411 30.8612 25.9453 30.2152 25.9453 29.5599C25.9453 28.9046 26.1411 28.2586 26.514 27.7141C26.8869 27.1696 27.409 26.7359 28.0243 26.4867C28.6397 26.2375 29.3109 26.1729 29.9635 26.2929C30.6161 26.4221 31.2128 26.7359 31.6883 27.2065C32.3222 27.8341 32.6765 28.6832 32.6765 29.5599C32.6765 30.4367 32.3222 31.2857 31.6883 31.9133ZM27.2505 27.5111C26.8403 27.9172 26.5606 28.434 26.4488 28.9877C26.3369 29.5507 26.3928 30.1321 26.6166 30.6581C26.8403 31.1842 27.2132 31.6364 27.6887 31.9594C28.1735 32.2732 28.7329 32.4486 29.3109 32.4486C29.8889 32.4486 30.4483 32.2824 30.9331 31.9594C31.4086 31.6456 31.7908 31.1934 32.0052 30.6581C32.229 30.1321 32.2849 29.5507 32.1731 28.9877C32.0612 28.4247 31.7815 27.9079 31.3713 27.5111C30.8212 26.9666 30.0847 26.662 29.3109 26.662C28.5371 26.662 27.7913 26.9666 27.2505 27.5111Z" fill="#D16527"/>
<path d="M8.50995 8.95999C5.71305 11.7287 2.19829 14.1282 1.19141 13.1315L1.50839 12.8177C2.03047 13.3253 4.81805 11.9871 8.20229 8.64621C11.5772 5.30534 12.929 2.53666 12.4163 2.01984L12.7333 1.70605C13.6656 2.65663 11.5213 5.96982 8.50995 8.95999Z" fill="#231F20"/>
<path d="M13.2991 2.90568C13.8118 3.4225 12.46 6.19117 9.0851 9.53205C5.71018 12.8729 2.91329 14.2111 2.3912 13.7035L2.07422 14.0173L8.56301 20.4406C8.98255 20.8559 9.82161 20.7267 11.0616 20.053C11.0616 20.053 11.304 19.9515 11.276 19.8131C11.2574 19.7023 11.0243 19.6469 11.0243 19.6469C10.8751 19.6008 10.5395 19.4255 10.5208 19.2409C10.5022 19.0748 10.698 18.8625 11.0522 18.6318C12.5066 17.6627 13.8585 16.5553 15.0891 15.3186C16.3011 14.1373 17.3919 12.8452 18.3521 11.4517C18.7251 10.8979 18.9395 10.861 19.0234 10.8795C19.2005 10.9072 19.3497 11.2025 19.3963 11.3501C19.3963 11.3501 19.4523 11.5532 19.5268 11.5901C19.648 11.6455 19.7692 11.3778 19.7692 11.3778C20.3846 10.2242 20.4964 9.43053 20.0955 9.03368L13.6067 2.61035L13.2991 2.90568ZM19.5921 10.7503C19.5362 10.6672 19.4616 10.5934 19.3777 10.5472C19.2938 10.4919 19.2005 10.4549 19.098 10.4365C18.7344 10.3811 18.3708 10.6303 17.9979 11.2025C17.0562 12.5684 15.9841 13.842 14.7908 14.9956C13.5788 16.2138 12.2549 17.3028 10.8192 18.2534C10.2784 18.5949 10.036 18.9363 10.0827 19.287C10.1013 19.407 10.1479 19.5085 10.2225 19.61C10.2878 19.7116 10.381 19.7854 10.4742 19.85C9.68177 20.2284 9.09442 20.3299 8.87999 20.1176L2.93193 14.2203C4.43293 14.0542 7.14592 12.0608 9.40208 9.8366C11.6582 7.6032 13.6627 4.91758 13.8305 3.43173L19.7879 9.32901C19.993 9.52282 19.9091 10.0396 19.5921 10.7503Z" fill="#231F20"/>
<path d="M14.0774 14.4783C13.6672 14.8844 13.1358 15.1612 12.5671 15.2812C11.9984 15.392 11.4017 15.3366 10.8609 15.1151C10.3202 14.8936 9.86339 14.5244 9.53709 14.0445C9.21078 13.5646 9.04297 13.0017 9.04297 12.4202C9.04297 11.8388 9.2201 11.2759 9.53709 10.796C9.86339 10.3161 10.3202 9.94689 10.8609 9.7254C11.4017 9.50391 11.989 9.44853 12.5671 9.55928C13.1358 9.67003 13.6672 9.9469 14.0774 10.3622C14.6274 10.9067 14.9351 11.6542 14.9351 12.4202C14.9444 13.1862 14.6368 13.9246 14.0774 14.4783ZM10.227 10.6668C9.87271 11.0174 9.63964 11.4512 9.54641 11.9311C9.45318 12.411 9.49979 12.9094 9.68625 13.3616C9.87271 13.8138 10.199 14.2014 10.6092 14.4691C11.0194 14.7367 11.5042 14.8844 11.9984 14.8844C12.4925 14.8844 12.9773 14.7367 13.3875 14.4691C13.7977 14.1922 14.124 13.8138 14.3105 13.3616C14.4969 12.9094 14.5528 12.411 14.4503 11.9311C14.3571 11.4512 14.1147 11.0082 13.7697 10.6668C13.3036 10.2053 12.6603 9.9469 11.9984 9.9469C11.3364 9.9469 10.7025 10.1961 10.227 10.6668Z" fill="#231F20"/>
<path d="M32.3684 32.5321C31.7718 33.1227 31.0073 33.5288 30.1682 33.6949C29.3291 33.861 28.4714 33.778 27.6883 33.455C26.9052 33.1319 26.2339 32.5874 25.7584 31.886C25.283 31.1846 25.0312 30.3633 25.0312 29.5234C25.0312 28.6836 25.283 27.8622 25.7584 27.1608C26.2339 26.4594 26.8958 25.9149 27.6883 25.5919C28.4714 25.2689 29.3385 25.1858 30.1682 25.352C30.998 25.5181 31.7624 25.9242 32.3684 26.5148C33.1702 27.3085 33.627 28.3975 33.627 29.5234C33.627 30.6586 33.1702 31.7384 32.3684 32.5321ZM26.6068 26.8286C26.0661 27.3639 25.7025 28.0376 25.5533 28.7759C25.4042 29.5142 25.4788 30.2802 25.7771 30.9724C26.0661 31.6645 26.5602 32.2644 27.1942 32.6797C27.8281 33.095 28.574 33.3258 29.3291 33.3258C30.0936 33.3258 30.8301 33.1043 31.4641 32.6797C32.0981 32.2552 32.5922 31.6645 32.8812 30.9724C33.1702 30.2802 33.2448 29.5142 33.1049 28.7759C32.9558 28.0376 32.5922 27.3546 32.0515 26.8286C31.3243 26.118 30.3547 25.7211 29.3291 25.7211C28.3129 25.7211 27.334 26.118 26.6068 26.8286Z" fill="#231F20"/>
<path d="M13.4793 13.8791C13.1903 14.1652 12.8174 14.3682 12.4072 14.442C12.0063 14.5251 11.5775 14.479 11.2045 14.3221C10.8223 14.1652 10.496 13.8975 10.2722 13.5561C10.0392 13.2146 9.91797 12.8177 9.91797 12.4117C9.91797 12.0056 10.0392 11.5995 10.2722 11.2673C10.5053 10.9258 10.8316 10.6582 11.2045 10.5013C11.5868 10.3444 12.0063 10.3075 12.4072 10.3813C12.8081 10.4644 13.181 10.6582 13.4793 10.9443C13.6751 11.1381 13.8243 11.3688 13.9362 11.618C14.0387 11.8672 14.0947 12.1348 14.0947 12.4117C14.0947 12.6885 14.0387 12.9562 13.9362 13.2054C13.8243 13.4545 13.6751 13.6853 13.4793 13.8791ZM10.8316 11.2581C10.5985 11.4888 10.4401 11.7749 10.3841 12.0887C10.3189 12.4024 10.3561 12.7347 10.4773 13.03C10.5985 13.3253 10.813 13.5837 11.0833 13.7591C11.3537 13.9344 11.6707 14.036 11.997 14.036C12.3233 14.036 12.6403 13.9437 12.9106 13.7591C13.181 13.5837 13.3954 13.3253 13.5166 13.03C13.6378 12.7347 13.6751 12.4024 13.6099 12.0887C13.5446 11.7749 13.3861 11.4795 13.1624 11.2581C13.0132 11.1104 12.8267 10.9904 12.631 10.9074C12.4352 10.8243 12.2207 10.7874 11.997 10.7874C11.7826 10.7874 11.5681 10.8335 11.363 10.9074C11.1672 10.9904 10.9901 11.1104 10.8316 11.2581Z" fill="#231F20"/>
<path d="M20.6868 18.7726L20.7241 18.7173C20.7987 18.5881 20.8919 18.4681 21.0038 18.3758C19.4468 16.8438 17.8992 15.3118 16.3703 13.7613C16.3236 13.7152 16.2584 13.6875 16.1931 13.6875C16.1279 13.6875 16.0626 13.7152 16.016 13.7613C15.9694 13.8075 15.9414 13.8721 15.9414 13.9367C15.9414 14.0013 15.9694 14.0659 16.016 14.112C17.5543 15.6625 19.1205 17.2222 20.6868 18.7726Z" fill="#231F20"/>
<path d="M30.7618 24.1792C28.5896 23.8193 26.5292 22.9795 24.7299 21.7244C24.3756 21.4752 24.04 21.2075 23.7043 20.9307C23.5831 21.0414 23.4713 21.1614 23.3594 21.2721C23.723 21.5767 24.0866 21.8812 24.4781 22.1581C26.2961 23.4778 28.4218 24.2808 30.6313 24.6684C30.9483 24.7238 31.0881 24.2346 30.7618 24.1792Z" fill="#231F20"/>
<path d="M18.4571 20.9028C16.9094 19.3615 15.3525 17.8295 13.7862 16.3068C13.5532 16.076 13.1896 16.436 13.4226 16.6575C14.9796 18.1802 16.5272 19.703 18.0655 21.2166C18.1867 21.115 18.3172 21.0135 18.4571 20.9028Z" fill="#231F20"/>
<path d="M24.3919 30.7327C24.0469 28.6193 23.2358 26.6166 22.0239 24.8446C21.7721 24.4847 21.5018 24.134 21.2221 23.8018L21.1382 23.9033C21.0543 23.9956 20.9517 24.0786 20.8398 24.134C21.017 24.3463 21.1848 24.5585 21.3526 24.7708C22.7138 26.5704 23.5249 28.6562 23.9071 30.8619C23.9537 31.1849 24.4478 31.0465 24.3919 30.7327Z" fill="#231F20"/>
<path d="M33.1964 33.3523C32.5345 33.9983 31.7141 34.4597 30.8191 34.7089C29.9241 34.9581 28.9825 34.9766 28.0781 34.7643L28.1807 34.3398C29.0104 34.5336 29.8775 34.5151 30.7072 34.2844C31.5276 34.0537 32.2828 33.6291 32.8888 33.0385C34.0728 31.8664 34.5762 30.076 34.2033 28.3687L34.6322 28.2764C35.0424 30.1314 34.483 32.0787 33.1964 33.3523Z" fill="#231F20"/>
<path d="M24.3254 30.6211C23.9525 30.2427 23.5703 29.7536 23.0202 29.6705C22.5727 29.5967 22.1159 30.0212 22.0693 30.4458C22.004 30.9903 22.4235 31.3779 22.7965 31.7193C23.6355 32.5038 24.4466 33.316 25.2577 34.1281C25.8357 34.7003 26.4044 35.2909 26.9825 35.8631C27.2808 36.1677 27.691 36.703 28.1572 36.7399C28.3996 36.7583 28.642 36.6937 28.8377 36.5645C29.0429 36.4261 29.1827 36.2323 29.2573 36.0016C29.4624 35.4109 28.6979 34.7741 28.3436 34.4234C28.297 34.3865 28.2317 34.3588 28.1665 34.3588C28.1012 34.3588 28.0453 34.3865 27.9987 34.4327C27.9521 34.4788 27.9241 34.5342 27.9241 34.5988C27.9241 34.6634 27.9427 34.728 27.98 34.7741C28.269 35.0602 29.0056 35.6324 28.6513 36.0754C28.3063 36.5184 27.9148 36.0754 27.6537 35.8262C27.0104 35.2263 26.4044 34.5803 25.7798 33.9527C24.8848 33.0575 23.9898 32.1623 23.0668 31.2948C22.927 31.1656 22.7965 31.0364 22.6846 30.8795C22.4981 30.6303 22.5727 30.1135 23.0016 30.1781C23.3745 30.2335 23.7194 30.7319 23.9618 30.981C24.0084 31.0272 24.0737 31.0549 24.139 31.0549C24.2042 31.0549 24.2695 31.0272 24.3161 30.981C24.3627 30.9349 24.3907 30.8703 24.3907 30.8057C24.4 30.7411 24.372 30.6765 24.3254 30.6211Z" fill="#231F20"/>
<path d="M30.8022 24.1883C30.5226 23.9483 30.2708 23.6807 30.0564 23.3761C29.8513 23.0347 30.2802 22.6471 30.6158 22.7024C30.8022 22.7578 30.9607 22.8685 31.0819 23.0162C31.9956 23.8745 32.844 24.8158 33.739 25.6926C34.4289 26.3663 35.1374 27.0216 35.8087 27.7137C36.1163 28.0275 36.3867 28.3044 36.0418 28.7289C35.5849 29.2734 34.9417 28.5074 34.6153 28.1844C34.3823 27.9537 34.0187 28.3136 34.2517 28.5351C34.6153 28.8858 35.1747 29.5318 35.7434 29.4303C35.9951 29.3842 36.2282 29.255 36.4054 29.0704C36.5825 28.8858 36.6944 28.6459 36.7317 28.3967C36.7969 27.9075 36.3774 27.5661 36.0697 27.2523C35.4917 26.6524 34.8764 26.0894 34.2797 25.508C33.4593 24.7051 32.6296 23.9022 31.8464 23.0808C31.4549 22.6747 31.0726 22.1764 30.448 22.1948C29.9352 22.2133 29.5343 22.7117 29.4877 23.1731C29.4318 23.7268 30.0937 24.216 30.4387 24.5482C30.6811 24.7605 31.0446 24.4098 30.8022 24.1883Z" fill="#231F20"/>
<path d="M20.3669 19.2222C18.8286 17.6902 17.3369 16.1028 15.7706 14.6077C15.5375 14.3862 15.1739 14.7369 15.407 14.9584C16.9826 16.4627 18.4836 18.0501 20.0312 19.5913C20.1431 19.4713 20.255 19.3514 20.3669 19.2222Z" fill="#231F20"/>
<path d="M24.572 23.0058C24.0219 22.5905 23.4905 22.1475 22.9778 21.6953C22.8659 21.8245 22.7447 21.9537 22.6328 22.0829C23.0151 22.4244 23.4066 22.7566 23.8914 23.135C24.7771 23.8272 25.8586 24.2425 26.9866 24.3163C26.362 24.1318 25.2805 23.5319 24.572 23.0058Z" fill="#231F20"/>
<path d="M3.54927 8.90568C3.74505 9.69014 2.57968 10.8253 2.57968 10.8253C2.64494 10.936 4.24849 9.57939 3.95948 8.7211C3.66115 7.80744 2.3839 8.32426 2.40255 8.42578C2.41187 8.42578 3.36281 8.13045 3.54927 8.90568Z" fill="#D16527"/>
<path d="M8.56516 3.93028C9.35761 4.11486 10.523 2.95201 10.523 2.95201C10.6349 3.01662 9.25505 4.61322 8.3787 4.33635C7.45572 4.04103 7.98713 2.77666 8.08036 2.79512C8.08036 2.79512 7.78203 3.7457 8.56516 3.93028Z" fill="#231F20"/>
<path d="M12.7334 13.14C13.386 12.3924 12.8453 11.4788 12.5563 11.248C13.1529 11.4603 13.7123 12.5493 12.9944 13.3153C12.3698 13.9706 11.6799 13.7306 11.4375 13.4814C11.6613 13.5553 11.9036 13.5737 12.1367 13.5091C12.3698 13.4445 12.5749 13.3153 12.7334 13.14Z" fill="#D16527"/>
<path d="M30.6226 30.8142C31.8252 29.4206 30.8277 27.7409 30.2963 27.3164C31.4057 27.7133 32.4405 29.7436 31.1074 31.1372C29.9513 32.3554 28.6741 31.9124 28.2266 31.4417C28.2359 31.4417 29.625 31.9678 30.6226 30.8142Z" fill="#231F20"/>
<path d="M24.1572 26.0693C23.5792 24.9434 22.7494 23.9559 21.7332 23.1807L21.668 23.2545C22.4977 24.122 23.1969 25.0911 23.7563 26.1431C24.064 26.7338 24.4462 27.8228 24.5581 29.5486C24.8564 28.3489 24.5581 26.8169 24.1572 26.0693Z" fill="#231F20"/>
<path d="M17.1755 10.9905L17.6883 10.2153L14.3413 6.90212C13.8006 6.36684 15.0965 7.76964 14.6583 8.50795L17.1755 10.9905Z" fill="#231F20"/>
<path d="M12.2675 2.39954L11.7361 1.86426C11.7361 1.86426 10.7479 2.84252 11.3259 3.41472L11.7548 3.83925C12.0251 3.35934 12.2769 2.90713 12.2675 2.39954Z" fill="#231F20"/>
<path d="M13.2401 3.35002L12.7553 2.87012C12.6901 3.16544 12.5875 3.44231 12.4477 3.70995C12.3638 3.87607 12.2798 4.0145 12.1866 4.1714C12.1866 4.19908 12.1773 4.21754 12.168 4.24523L12.6994 4.77128C12.9511 4.32829 13.1282 3.84838 13.2401 3.35002Z" fill="#231F20"/>
<path d="M13.1094 5.18522L17.8921 9.91966C17.8921 9.91966 18.6659 8.72912 17.6776 7.75086L13.706 3.81934C13.5755 4.29924 13.3704 4.76069 13.1094 5.18522Z" fill="#231F20"/>
<path d="M11.5752 4.21527C11.398 4.04915 11.2209 3.89226 11.0437 3.72614C10.6988 3.41235 10.4191 3.90149 10.6335 4.12298C10.848 4.33525 11.0344 4.5106 11.2582 4.73209C11.3328 4.61212 11.5379 4.27987 11.5752 4.21527Z" fill="#231F20"/>
<path d="M12.4923 5.11262C12.3338 4.95573 12.1753 4.79884 11.9795 4.61426C11.8863 4.78961 11.7838 4.96496 11.6719 5.14031L12.166 5.61098C12.2872 5.45409 12.4923 5.11262 12.4923 5.11262Z" fill="#231F20"/>
<path d="M12.5938 6.02615L13.9642 7.35511C14.4117 7.78887 13.526 6.12766 13.0785 5.68468L12.9107 5.51855C12.8082 5.6939 12.7056 5.86002 12.5938 6.02615Z" fill="#231F20"/>
<path d="M11.1352 4.97411C10.9394 4.7803 10.7623 4.59572 10.5945 4.42037C10.2775 4.08813 10.1563 4.29117 10.4267 4.56803C10.6225 4.76184 10.8089 4.94642 11.0047 5.14023C11.0513 5.08485 11.0979 5.03871 11.1352 4.97411Z" fill="#231F20"/>
<path d="M12.394 6.30352C12.366 6.34043 12.3381 6.38658 12.3008 6.42349C12.8322 6.94954 13.3729 7.47559 13.9043 8.00164C14.4544 8.53692 14.1281 7.90935 13.5873 7.37407C13.5873 7.37407 13.0746 6.88494 12.4313 6.2666C12.4127 6.27583 12.4033 6.28506 12.394 6.30352Z" fill="#231F20"/>
<path d="M12.0092 5.84133C11.8414 5.68444 11.6922 5.53677 11.5337 5.37988C11.4965 5.43526 11.4592 5.49063 11.4219 5.546L11.888 6.00745C11.9346 5.95208 11.9719 5.8967 12.0092 5.84133Z" fill="#231F20"/>
<path d="M10.7434 5.50047L9.98823 4.75293L9.69922 4.99288L10.5103 5.80503C10.5942 5.71274 10.6781 5.60199 10.7434 5.50047Z" fill="#231F20"/>
<path d="M11.6263 6.37673L11.1042 5.86914C11.0296 5.97066 10.955 6.07218 10.8711 6.16447L11.3932 6.68129C11.4771 6.57977 11.5517 6.47825 11.6263 6.37673Z" fill="#231F20"/>
<path d="M11.7852 7.059C13.1929 8.45257 14.4702 9.7077 14.4702 9.7077C15.3652 10.6029 17.323 12.0334 16.4187 11.1382L12.0276 6.76367C11.9436 6.86519 11.8597 6.95748 11.7852 7.059Z" fill="#231F20"/>
<path d="M2.46766 12.6157L1.7125 11.8682L1.29297 12.2189C1.47943 12.4034 1.64724 12.5696 1.84302 12.7726C2.06677 12.7541 2.27188 12.6988 2.46766 12.6157Z" fill="#231F20"/>
<path d="M3.37469 13.5192L2.84328 12.9932C2.67547 13.0855 2.50766 13.1777 2.33984 13.2608L2.77802 13.6853C2.98313 13.6669 3.18823 13.6115 3.37469 13.5192Z" fill="#231F20"/>
<path d="M3.23438 14.1385L8.11962 18.9745L8.66967 18.753C7.24326 17.3317 5.34137 15.4675 3.70052 13.834C3.55136 13.9355 3.39287 14.0462 3.23438 14.1385Z" fill="#231F20"/>
<path d="M4.10938 13.8075L6.45876 16.1147C7.06475 16.7146 6.65454 15.9301 6.03923 15.3302L4.37974 13.6875C4.29583 13.7244 4.2026 13.7706 4.10938 13.8075Z" fill="#231F20"/>
<path d="M3.94203 13.251L3.48521 12.7988L3.29875 12.8911L3.21484 12.928L3.66235 13.371C3.7649 13.3433 3.85813 13.2972 3.94203 13.251Z" fill="#231F20"/>
<path d="M3.04709 12.3657C2.77672 12.0981 2.53432 11.8673 2.29193 11.6182L2.10547 11.8304L2.7674 12.4857C2.86995 12.4488 2.96318 12.4119 3.04709 12.3657Z" fill="#231F20"/>
<path d="M3.52188 12.1341L2.72943 11.3496L2.54297 11.4419L3.33542 12.2171C3.39136 12.1987 3.46594 12.171 3.52188 12.1341Z" fill="#231F20"/>
<path d="M4.42755 13.0292L3.93344 12.54C3.8775 12.577 3.82156 12.6139 3.76562 12.6508L4.25042 13.1215C4.28771 13.1215 4.37162 13.0661 4.42755 13.0292Z" fill="#231F20"/>
<path d="M4.66797 13.5477L6.29016 15.1443C6.86819 15.7165 6.29949 14.8859 5.72146 14.3137L4.82646 13.4277C4.77984 13.4739 4.72391 13.5108 4.66797 13.5477Z" fill="#231F20"/>
</svg>
