<svg width="222" height="216" viewBox="0 0 222 216" fill="none" xmlns="http://www.w3.org/2000/svg">
<mask id="mask0_297_1325" style="mask-type:alpha" maskUnits="userSpaceOnUse" x="173" y="27" width="24" height="24">
<path fill-rule="evenodd" clip-rule="evenodd" d="M178.535 48.7969L178.952 49.0442C180.706 50.0839 182.716 50.6341 184.766 50.6349H184.77C191.066 50.6349 196.19 45.5155 196.193 39.2232C196.194 36.174 195.007 33.3069 192.851 31.1499C190.694 28.9928 187.826 27.8042 184.775 27.8032C178.474 27.8032 173.35 32.922 173.348 39.2139C173.347 41.3702 173.951 43.4702 175.094 45.287L175.366 45.7188L174.212 49.9299L178.535 48.7969ZM191.694 42.4889C191.608 42.3457 191.379 42.2599 191.036 42.0882C190.693 41.9164 189.004 41.0865 188.69 40.9719C188.375 40.8576 188.146 40.8004 187.917 41.1437C187.688 41.4871 187.03 42.2599 186.83 42.4889C186.629 42.7178 186.429 42.7465 186.086 42.5747C185.742 42.4031 184.636 42.0407 183.324 40.872C182.303 39.9623 181.614 38.8389 181.414 38.4955C181.214 38.1521 181.393 37.9664 181.564 37.7954C181.719 37.6416 181.908 37.3946 182.08 37.1943C182.251 36.994 182.309 36.8508 182.423 36.622C182.537 36.393 182.48 36.1927 182.394 36.021C182.309 35.8492 181.622 34.1606 181.336 33.4737C181.057 32.8048 180.774 32.8954 180.563 32.8848C180.363 32.8749 180.134 32.8727 179.905 32.8727C179.676 32.8727 179.304 32.9585 178.989 33.302C178.674 33.6454 177.787 34.4755 177.787 36.1639C177.787 37.8526 179.018 39.4838 179.19 39.7128C179.361 39.9418 181.611 43.4068 185.056 44.8929C185.875 45.2464 186.514 45.4574 187.013 45.6155C187.836 45.8766 188.584 45.8398 189.176 45.7514C189.836 45.653 191.208 44.9215 191.494 44.1203C191.78 43.3188 191.78 42.6319 191.694 42.4889Z" fill="#D16527"/>
</mask>
<g mask="url(#mask0_297_1325)">
<path d="M137970 -25976.7H-37402.1V110552H137970V-25976.7Z" fill="#E2E2E2"/>
</g>
<mask id="mask1_297_1325" style="mask-type:alpha" maskUnits="userSpaceOnUse" x="1" y="74" width="24" height="24">
<path fill-rule="evenodd" clip-rule="evenodd" d="M6.64821 95.5481L7.06539 95.7954C8.81916 96.8352 10.8295 97.3853 12.8791 97.3861H12.8838C19.1796 97.3861 24.3038 92.2667 24.3063 85.9744C24.3075 82.9253 23.1205 80.0581 20.9639 77.9012C18.8072 75.7441 15.9393 74.5554 12.8883 74.5544C6.58765 74.5544 1.46345 79.6733 1.46094 85.9651C1.46008 88.1214 2.06395 90.2214 3.20737 92.0382L3.47897 92.47L2.32503 96.6811L6.64821 95.5481ZM19.8074 89.2401C19.7216 89.0969 19.4927 89.0111 19.1493 88.8394C18.8059 88.6677 17.1176 87.8377 16.8029 87.7231C16.4881 87.6088 16.2592 87.5516 16.0303 87.8949C15.8014 88.2383 15.1433 89.0111 14.9429 89.2401C14.7427 89.469 14.5423 89.4977 14.199 89.326C13.8556 89.1543 12.7492 88.792 11.4376 87.6232C10.4167 86.7135 9.72755 85.5902 9.52723 85.2467C9.32697 84.9033 9.50587 84.7176 9.67777 84.5466C9.83227 84.3928 10.0212 84.1459 10.1929 83.9455C10.3646 83.7453 10.4218 83.6021 10.5363 83.3732C10.6508 83.1442 10.5935 82.944 10.5077 82.7722C10.4218 82.6004 9.73509 80.9118 9.44895 80.2249C9.17015 79.556 8.88706 79.6466 8.67629 79.636C8.47623 79.6261 8.24709 79.6239 8.0182 79.6239C7.78926 79.6239 7.41724 79.7097 7.10247 80.0532C6.78771 80.3966 5.90061 81.2267 5.90061 82.9152C5.90061 84.6038 7.1311 86.235 7.3028 86.464C7.47449 86.693 9.72418 90.158 13.1689 91.6441C13.9881 91.9976 14.6278 92.2086 15.1265 92.3667C15.9491 92.6278 16.6976 92.591 17.2893 92.5027C17.9491 92.4042 19.321 91.6728 19.6071 90.8715C19.8933 90.07 19.8933 89.3832 19.8074 89.2401Z" fill="#D16527"/>
</mask>
<g mask="url(#mask1_297_1325)">
<path d="M137798 -25930H-37574V110598H137798V-25930Z" fill="#E2E2E2"/>
</g>
<path d="M128.728 92.1652C128.728 92.1652 116.951 115.694 104.99 131.936C100.23 138.4 95.4406 143.709 91.3535 145.924C87.3525 148.091 83.9652 151.456 81.1621 155.187C73.9029 164.846 70.5538 176.938 70.5538 176.938L39.9648 130.72C39.9648 130.72 41.0091 85.5417 44.6817 77.9833C50.0345 66.9707 52.6198 44.7194 54.6763 40.2885C56.2014 37.0026 60.5579 20.0273 60.9761 18.7792C61.1582 18.2412 62.607 17.4169 64.4901 17.4194C66.0005 17.4194 68.5662 18.8775 69.2119 21.8748C72.4836 37.0222 68.5452 47.0128 68.5908 47.4575C69.7445 59.0991 66.276 67.7397 68.7088 70.0282C68.7999 70.1129 68.9671 70.0724 69.2057 69.9213C73.422 67.2176 99.5954 29.1089 102.818 28.2858C106.222 27.4173 128.728 92.1652 128.728 92.1652Z" fill="#FFB27D"/>
<path d="M79.7505 167.79C79.7505 167.79 79.3336 188.329 78.1418 215.99H0.984375C18.6207 178.428 33.9533 146.812 33.9533 146.812C33.9533 146.812 77.8859 148.154 79.7505 167.79Z" fill="#D16527"/>
<path d="M155.466 12.5357L145.993 26.4044L136.698 40.015C136.131 40.698 135.476 40.9351 134.766 40.8676C132.536 40.6563 129.776 37.4428 127.625 35.6641L127.407 35.4847C124.571 33.1409 124.17 28.9066 126.517 26.0764L140.724 8.92419V8.92296L144.938 3.83615C147.285 1.00345 151.523 0.60299 154.358 2.94678L154.576 3.12613C157.412 5.46869 157.812 9.703 155.466 12.5357Z" fill="#FFB27D"/>
<path d="M145.993 26.4027L136.698 40.0134C136.131 40.6964 135.475 40.9335 134.766 40.8659L140.724 8.92255C140.736 9.10189 141.748 23.4337 145.993 26.4027Z" fill="#EFA26F"/>
<path d="M104.985 131.934C100.225 138.398 95.4354 143.707 91.3483 145.922C87.3472 148.089 83.96 151.454 81.1569 155.185C77.9332 153.684 74.2581 151.924 70.6666 150.179C66.2929 148.057 66.1244 141.853 70.4096 139.555C70.4514 139.533 70.492 139.51 70.5326 139.487C74.5471 137.193 78.6613 129.093 78.6613 129.093L104.985 131.934Z" fill="#EFA26F"/>
<path d="M60.7596 19.4816L58.2812 29.4747C58.2812 29.4747 60.4484 30.3604 61.8395 29.6725C63.2306 28.9845 64.3658 20.0197 60.7596 19.4816Z" fill="#FFC197"/>
<path d="M132.04 136.656H78.7457C73.5037 136.656 69.2148 132.372 69.2148 127.137V10.1413C69.2148 4.90588 73.5037 0.622437 78.7457 0.622437H132.04C137.282 0.622437 141.57 4.90588 141.57 10.1413V127.137C141.57 132.372 137.282 136.656 132.04 136.656Z" fill="#2B478B"/>
<path d="M137.985 11.0425V125.327C137.985 129.204 134.831 132.376 130.979 132.376H79.8054C75.9532 132.376 72.8008 129.204 72.8008 125.327V11.0425C72.8008 7.16569 75.9532 3.99396 79.8054 3.99396H130.979C134.831 3.99396 137.985 7.16569 137.985 11.0425Z" fill="#C0D8FB"/>
<path d="M130.979 3.99396L80.4388 132.376H79.8054C75.9532 132.376 72.8008 129.204 72.8008 125.327V11.0425C72.8008 7.16569 75.9532 3.99396 79.8054 3.99396H130.979Z" fill="#CBE1FD"/>
<path d="M116.09 8.24357H94.7023C92.9607 8.24357 91.5352 6.81986 91.5352 5.08044V4.58294C91.5352 2.84352 92.9607 1.4198 94.7023 1.4198H116.09C117.832 1.4198 119.257 2.84352 119.257 4.58294V5.08044C119.257 6.81986 117.832 8.24357 116.09 8.24357Z" fill="#2B478B"/>
<path d="M150.757 64.9079L149.343 65.4435L139.844 69.0489C139.622 69.1336 139.397 69.2049 139.172 69.2614C136.027 70.0783 132.68 68.4027 131.501 65.3035L131.362 64.9386C130.097 61.617 131.785 57.8655 135.11 56.6027L143.966 53.2418L144.609 52.9973L146.023 52.4617C149.348 51.1989 153.103 52.8843 154.367 56.2071L154.506 56.572C155.77 59.8948 154.084 63.6451 150.757 64.9079Z" fill="#FFB27D"/>
<path d="M143.044 65.125C141.459 65.7245 138.59 66.7895 137.055 67.0094C136.62 67.072 135.82 66.8362 135.073 66.0193C134.625 65.5304 134.196 64.8326 133.879 63.8671C133.73 63.4126 133.606 62.9606 133.554 62.4938C133.495 61.9471 133.511 61.4017 133.606 60.86C133.693 60.3723 134.026 59.9289 134.512 59.6942C134.514 59.693 134.517 59.693 134.52 59.6906C136.152 58.9117 138.351 57.9634 140.281 57.434C141.614 57.0667 142.963 57.6539 143.385 58.8196L143.584 59.3638L144.604 62.1523C145.026 63.3131 144.34 64.6373 143.044 65.125Z" fill="#FFD3B6"/>
<path d="M143.038 65.1267C141.452 65.7262 138.583 66.7912 137.048 67.0111C136.614 67.0738 135.813 66.8379 135.066 66.021C134.986 65.8355 134.914 65.639 134.844 65.4301C134.695 64.9756 134.571 64.5236 134.519 64.0568C134.46 63.5102 134.476 62.9647 134.571 62.423C134.658 61.9353 134.991 61.4919 135.477 61.2573C135.478 61.256 135.482 61.256 135.485 61.2536C137.117 60.4748 139.317 59.5264 141.246 58.997C142.1 58.7612 142.959 58.9172 143.578 59.3667L144.597 62.1552C145.019 63.3148 144.333 64.6391 143.038 65.1267Z" fill="#FFC197"/>
<path d="M146.448 78.2484L139.122 80.2397C136.896 80.8453 134.58 79.521 133.974 77.2976L133.749 76.4697C133.142 74.2463 134.468 71.9332 136.694 71.3276L144.02 69.3364C146.246 68.7308 148.562 70.055 149.168 72.2784L149.395 73.1063C149.999 75.3285 148.673 77.6428 146.448 78.2484Z" fill="#FFB27D"/>
<path d="M142.489 77.8895C141.144 78.2482 138.711 78.882 137.437 78.9508C136.973 78.9766 136.044 78.5848 135.438 77.3674C135.289 77.0726 135.163 76.7311 135.063 76.3356C134.974 75.9769 134.907 75.6206 134.899 75.2607C134.891 74.8357 134.945 74.418 135.063 74.009C135.169 73.6392 135.476 73.3211 135.891 73.1736C135.894 73.1724 135.896 73.1724 135.898 73.17C137.294 72.6774 139.168 72.089 140.791 71.8064C141.911 71.6099 142.974 72.1479 143.236 73.0705L143.425 73.7289L143.99 75.7078C144.251 76.623 143.589 77.5971 142.489 77.8895Z" fill="#FFD3B6"/>
<path d="M142.485 77.8903C141.139 78.249 138.707 78.8828 137.432 78.9516C136.969 78.9774 136.04 78.5855 135.434 77.3682C135.352 77.0341 135.293 76.6987 135.286 76.3584C135.277 75.9359 135.332 75.5158 135.45 75.1067C135.555 74.7394 135.863 74.4188 136.277 74.2714C136.281 74.2702 136.282 74.2702 136.285 74.2677C137.681 73.7751 139.556 73.1879 141.178 72.9066C142.105 72.7433 142.994 73.0848 143.421 73.7309L143.986 75.7098C144.246 76.6238 143.585 77.5979 142.485 77.8903Z" fill="#FFC197"/>
<path d="M26.4492 162.396C26.4492 162.396 41.5272 176.819 51.6903 182.387L59.3861 176.935V184.978C59.3861 184.978 74.5207 187.651 79.2941 184.978V163.047L36.7845 141.764L26.4492 162.396Z" fill="#AF4A00"/>
<path d="M82.5016 183.233C76.6458 184.431 64.0252 179.837 64.0252 179.837L66.0608 160.2L51.7995 176.513C44.5415 173.816 33.1903 166.777 26.4452 162.396C23.0875 160.215 20.8711 158.693 20.8711 158.693C30.3885 143.397 39.9624 129.091 39.9624 129.091C42.7729 134.704 49.4232 139.58 56.632 143.479C68.6129 149.96 82.1363 153.746 82.1363 153.746C82.1313 165.418 82.5016 183.233 82.5016 183.233Z" fill="#DCEAFF"/>
<path d="M150.522 50.8863C150.471 50.9047 150.418 50.9232 150.364 50.9404L140.76 53.4033C136.538 54.4868 132.172 52.2056 131.056 48.3325L130.485 46.3486C129.414 42.6302 131.716 38.7423 135.64 37.482L138.811 36.6688L145.243 35.019C149.466 33.9356 153.832 36.2167 154.948 40.0899L155.518 42.0738C156.575 45.7405 154.349 49.5719 150.522 50.8863Z" fill="#FFB27D"/>
<path d="M146.119 48.2077L141.453 50.3083C141.446 50.3095 141.437 50.312 141.424 50.3157C141.237 50.366 141.048 50.4041 140.859 50.4324C140.781 50.4447 140.701 50.4533 140.623 50.4619C140.59 50.4655 140.557 50.4655 140.525 50.4631C140.011 50.4459 139.659 49.9017 139.88 49.4153C140.321 48.4559 140.441 47.3466 140.145 46.2558L140.034 45.8504C140.034 45.8467 140.033 45.8418 140.03 45.8381L139.669 44.5152C139.382 43.4612 138.773 42.578 137.978 41.9404C137.882 41.8618 137.783 41.7893 137.682 41.7205C136.76 41.083 136.995 39.6384 138.075 39.3374C138.085 39.3338 138.094 39.3325 138.104 39.3288L143.225 38.555C144.49 38.2122 145.709 39.1839 146.055 40.4491L146.465 41.9564L147.341 45.1699C147.684 46.4339 147.384 47.865 146.119 48.2077Z" fill="#FFD3B6"/>
<path d="M146.118 48.2071L141.452 50.3077C141.445 50.3089 141.436 50.3114 141.423 50.315C141.313 50.3359 140.971 50.3937 140.524 50.4624C140.01 50.4452 139.658 49.9011 139.879 49.4146C140.32 48.4552 140.44 47.346 140.144 46.2552L140.033 45.8498C140.033 45.8461 140.032 45.8412 140.029 45.8375L139.668 44.5145C139.381 43.4606 138.772 42.5773 137.977 41.9398C138.141 41.699 138.389 41.5074 138.711 41.4177C138.719 41.414 138.731 41.4128 138.74 41.4091L143.861 40.6352C144.927 40.3453 145.958 40.9902 146.464 41.9545L147.34 45.168C147.683 46.4333 147.383 47.8644 146.118 48.2071Z" fill="#FFC197"/>
<path d="M69.2043 100.778C69.2043 100.778 67.1097 82.5129 65.1762 78.9518C63.2427 75.3894 61.6081 68.2561 64.5809 62.9568C67.5549 57.655 68.5819 47.458 68.5819 47.458C69.7356 59.0996 66.2672 67.7402 68.7 70.0287C68.791 70.1134 68.9583 70.0729 69.1969 69.9218L69.2043 100.778Z" fill="#EFA26F"/>
<path d="M43.2448 71.0268H116.004C118.53 71.0268 120.577 68.9815 120.577 66.4596V37.3563C120.577 34.8331 118.529 32.7891 116.004 32.7891H43.2448C40.7185 32.7891 38.6719 34.8344 38.6719 37.3563V66.4596C38.6719 68.9815 40.7197 71.0268 43.2448 71.0268Z" fill="#699DEE"/>
<path d="M116.518 27.9467H88.04C85.9269 27.9467 84.2148 26.2355 84.2148 24.1264V18.7324C84.2148 16.622 85.9282 14.9121 88.04 14.9121H116.518C118.631 14.9121 120.343 16.6233 120.343 18.7324V24.1264C120.343 26.2355 118.631 27.9467 116.518 27.9467Z" fill="#9ABFF6"/>
<path d="M115.265 123.524H82.4331C79.9031 123.524 77.8516 121.475 77.8516 118.948V112.016C77.8516 109.49 79.9031 107.441 82.4331 107.441H115.265C117.795 107.441 119.847 109.49 119.847 112.016V118.948C119.847 121.475 117.797 123.524 115.265 123.524Z" fill="#9ABFF6"/>
<path d="M128.026 100.778H97.0076C93.9757 100.778 91.5195 98.3235 91.5195 95.2967V83.1749C91.5195 80.1468 93.977 77.6937 97.0076 77.6937H128.026C131.058 77.6937 133.514 80.1481 133.514 83.1749V95.2967C133.514 98.3235 131.056 100.778 128.026 100.778Z" fill="#F99746"/>
<path d="M215.723 215.999H159.138C156.424 214.182 142.333 204.582 136.502 197.426C135.267 195.909 130.747 182.838 127.273 172.226C125.105 165.598 123.344 159.925 123.046 158.624C122.943 158.171 122.874 157.273 122.832 156.057V156.045C122.684 151.705 122.886 143.335 123.094 136.687L123.095 136.657L123.099 136.569C123.109 136.277 123.117 135.99 123.127 135.705V135.695C123.128 135.667 123.128 135.637 123.13 135.609C123.168 134.454 123.205 133.366 123.239 132.376C123.326 129.902 123.4 128.041 123.431 127.312L123.443 126.973C123.443 126.973 123.444 126.973 123.446 126.972C123.535 126.922 126.257 125.471 129.896 128.089C130.774 128.721 131.585 130.249 132.326 132.243C132.799 133.516 133.243 134.977 133.657 136.518C135.246 142.442 136.386 149.525 136.995 151.422C137.976 154.487 149.545 167.965 150.268 168.803C150.28 168.817 150.292 168.831 150.303 168.844V147.56L141.569 124.22L137.984 114.639L136.182 109.823C136.182 109.823 133.418 105.292 131.1 99.8402C130.085 97.4547 129.155 94.8934 128.579 92.4587C128.442 91.8789 128.325 91.3053 128.231 90.7439C128.231 90.7427 128.231 90.7427 128.231 90.7414C127.891 88.6839 127.867 86.7749 128.341 85.221C129.186 82.4534 131.09 81.9326 132.552 81.9891C132.704 81.994 132.85 82.0075 132.991 82.0235C133.134 82.0407 133.275 82.0677 133.412 82.1045C133.669 82.1721 133.913 82.2753 134.139 82.4067C134.141 82.4067 134.141 82.408 134.143 82.4092C134.518 82.6278 134.841 82.9288 135.092 83.2961C135.092 83.2961 136.327 84.9065 137.984 87.071C139.073 88.4959 140.346 90.1604 141.569 91.7647C143.746 94.6232 145.768 97.2901 146.324 98.0713C149.329 102.296 157.419 116.062 157.419 116.062L166.89 116.459C168.391 116.522 169.819 117.119 170.916 118.142C174.283 121.283 181.544 128.08 182.434 129.091C182.434 129.423 188.077 132.132 192.435 134.545C195.553 135.861 201.475 140.524 201.475 140.524C202.703 141.606 203.637 142.683 204.111 143.713C206.142 148.126 211.649 186.513 214.283 205.489C215.13 211.589 215.68 215.683 215.723 215.999Z" fill="#FFB27D"/>
<path d="M157.418 116.062C157.418 116.062 166.191 130.366 167.352 131.011C168.513 131.656 173.03 132.557 173.545 131.011C174.062 129.463 157.418 116.062 157.418 116.062Z" fill="#EFA26F"/>
<path d="M201.517 140.562C201.503 140.548 201.488 140.536 201.473 140.523C201.473 140.523 195.551 135.859 192.433 134.544C188.432 132.328 183.349 129.864 182.543 129.218C183.472 130.278 190.006 137.663 192.52 138.217C194.728 138.703 199.743 140.073 201.517 140.562Z" fill="#EFA26F"/>
<path d="M150.301 168.844V147.558C150.301 147.558 155.363 156.017 155.751 160.655C156.138 165.294 153.647 172.804 150.301 168.844Z" fill="#EFA26F"/>
<path d="M131.931 90.7363C131.191 89.4686 129.865 87.1703 129.41 85.8841C129.281 85.5205 129.297 84.7933 129.745 84.0182C130.013 83.5539 130.435 83.0711 131.073 82.6412C131.373 82.4385 131.677 82.2591 132.005 82.1388C132.389 81.9999 132.789 81.9238 133.198 81.9189C133.568 81.9152 133.953 82.1302 134.218 82.511C134.219 82.5122 134.22 82.5146 134.222 82.5159C135.101 83.7946 136.213 85.5353 136.968 87.1113C137.492 88.1997 137.326 89.4563 136.563 90.0091L136.208 90.2695L134.385 91.5987C133.626 92.149 132.534 91.7731 131.931 90.7363Z" fill="#FFD3B6"/>
<path d="M131.931 90.7368C131.191 89.4691 129.865 87.1708 129.41 85.8846C129.281 85.521 129.297 84.7938 129.745 84.0187C129.864 83.9204 129.992 83.8258 130.13 83.7313C130.43 83.5286 130.733 83.3492 131.062 83.2288C131.446 83.09 131.845 83.0151 132.255 83.009C132.625 83.0053 133.01 83.2202 133.275 83.601C133.276 83.6023 133.277 83.6047 133.278 83.606C134.158 84.8847 135.269 86.6254 136.025 88.2014C136.36 88.8991 136.413 89.6644 136.207 90.2688L134.384 91.5979C133.626 92.1495 132.534 91.7736 131.931 90.7368Z" fill="#FFC197"/>
<path d="M169.141 99.0082L191.491 106.306L178.103 93.274L176.744 96.4581L170.99 96.4863L169.141 99.0082Z" fill="#9EC3F6"/>
<path d="M191.492 106.305L174.146 93.127L155.613 88.8988L191.492 106.305Z" fill="white"/>
<path d="M178.102 93.2735L191.49 106.306L182.565 88.0479L178.102 93.2735Z" fill="white"/>
<path d="M37.3517 15.8477L16.4609 18.8242L30.3237 9.38757L31.0297 12.4131L36.1094 13.332L37.3517 15.8477Z" fill="#9EC3F6"/>
<path d="M16.4609 18.8232L33.8451 9.87188L50.8836 9.01569L16.4609 18.8232Z" fill="white"/>
<path d="M30.3237 9.38718L16.4609 18.8238L27.1923 4.07434L30.3237 9.38718Z" fill="white"/>
<path d="M70.1458 50.4658C70.1458 53.188 69.2282 55.6951 67.6822 57.6962C67.1693 58.3608 66.5875 58.9688 65.948 59.5093C63.8792 61.2623 61.2028 62.3175 58.278 62.3175C55.62 62.3175 53.1675 61.4465 51.1898 59.9712C50.3177 59.3226 49.5379 58.5561 48.8738 57.695C47.3277 55.6939 46.4102 53.1867 46.4102 50.4646C46.4102 43.9185 51.7236 38.6118 58.278 38.6118C64.8324 38.6118 70.1458 43.9197 70.1458 50.4658Z" fill="white"/>
<path d="M91.7611 44.4938H78.2796C77.8122 44.4938 77.4297 44.1117 77.4297 43.6449V43.2396C77.4297 42.7728 77.8122 42.3907 78.2796 42.3907H91.7611C92.2285 42.3907 92.611 42.7728 92.611 43.2396V43.6449C92.6098 44.1117 92.2285 44.4938 91.7611 44.4938Z" fill="white"/>
<path d="M91.9247 52.0534H78.116C77.7384 52.0534 77.4297 51.7448 77.4297 51.3675C77.4297 50.9901 77.7384 50.6816 78.116 50.6816H91.9247C92.3023 50.6816 92.611 50.9901 92.611 51.3675C92.611 51.7436 92.3023 52.0534 91.9247 52.0534Z" fill="white"/>
<path d="M85.8118 55.2971H77.9549C77.6658 55.2971 77.4297 55.0611 77.4297 54.7722V54.4514C77.4297 54.1626 77.6658 53.9266 77.9549 53.9266H85.8118C86.1009 53.9266 86.337 54.1626 86.337 54.4514V54.7722C86.3382 55.0611 86.1009 55.2971 85.8118 55.2971Z" fill="white"/>
<path d="M101.822 55.2963H89.128C88.7652 55.2963 88.4688 55.0001 88.4688 54.6375V54.5834C88.4688 54.2208 88.7652 53.9246 89.128 53.9246H101.822C102.185 53.9246 102.482 54.2208 102.482 54.5834V54.6375C102.482 55.0001 102.185 55.2963 101.822 55.2963Z" fill="white"/>
<path d="M113.683 52.0534H95.5769C95.1993 52.0534 94.8906 51.7448 94.8906 51.3675C94.8906 50.9901 95.1993 50.6816 95.5769 50.6816H113.683C114.061 50.6816 114.369 50.9901 114.369 51.3675C114.369 51.7436 114.059 52.0534 113.683 52.0534Z" fill="white"/>
<path d="M91.9247 58.5415H78.116C77.7384 58.5415 77.4297 58.233 77.4297 57.8557C77.4297 57.4783 77.7384 57.1698 78.116 57.1698H91.9247C92.3023 57.1698 92.611 57.4783 92.611 57.8557C92.611 58.233 92.3023 58.5415 91.9247 58.5415Z" fill="white"/>
<path d="M113.683 58.5415H95.5769C95.1993 58.5415 94.8906 58.233 94.8906 57.8557C94.8906 57.4783 95.1993 57.1698 95.5769 57.1698H113.683C114.061 57.1698 114.369 57.4783 114.369 57.8557C114.369 58.233 114.059 58.5415 113.683 58.5415Z" fill="white"/>
<path d="M104.903 44.4938H95.2203C94.8193 44.4938 94.4922 44.167 94.4922 43.7666V43.118C94.4922 42.7187 94.8193 42.3907 95.2203 42.3907H104.903C105.302 42.3907 105.631 42.7175 105.631 43.118V43.7666C105.631 44.167 105.303 44.4938 104.903 44.4938Z" fill="white"/>
<path d="M92.685 112.01H83.1C82.7679 112.01 82.4961 111.739 82.4961 111.407V111.119C82.4961 110.787 82.7679 110.516 83.1 110.516H92.685C93.0171 110.516 93.2889 110.787 93.2889 111.119V111.407C93.2889 111.739 93.0171 112.01 92.685 112.01Z" fill="#699DEE"/>
<path d="M92.8019 115.838H82.9844C82.7163 115.838 82.4961 115.618 82.4961 115.35C82.4961 115.082 82.7163 114.862 82.9844 114.862H92.8019C93.07 114.862 93.2902 115.081 93.2902 115.35C93.2902 115.619 93.07 115.838 92.8019 115.838Z" fill="#699DEE"/>
<path d="M88.4591 118.145H82.8739C82.6685 118.145 82.5 117.976 82.5 117.771V117.542C82.5 117.337 82.6685 117.169 82.8739 117.169H88.4591C88.6645 117.169 88.833 117.337 88.833 117.542V117.771C88.833 117.976 88.6645 118.145 88.4591 118.145Z" fill="#699DEE"/>
<path d="M99.8377 118.145H90.8124C90.5541 118.145 90.3438 117.935 90.3438 117.677V117.639C90.3438 117.381 90.5553 117.171 90.8124 117.171H99.8377C100.096 117.171 100.306 117.381 100.306 117.639V117.677C100.306 117.934 100.096 118.145 99.8377 118.145Z" fill="#699DEE"/>
<path d="M108.275 115.838H95.4024C95.1342 115.838 94.9141 115.618 94.9141 115.35C94.9141 115.082 95.1342 114.862 95.4024 114.862H108.275C108.543 114.862 108.763 115.081 108.763 115.35C108.763 115.619 108.543 115.838 108.275 115.838Z" fill="#699DEE"/>
<path d="M92.8019 120.452H82.9844C82.7163 120.452 82.4961 120.232 82.4961 119.964C82.4961 119.696 82.7163 119.476 82.9844 119.476H92.8019C93.07 119.476 93.2902 119.696 93.2902 119.964C93.2902 120.233 93.07 120.452 92.8019 120.452Z" fill="#699DEE"/>
<path d="M108.275 120.452H95.4024C95.1342 120.452 94.9141 120.232 94.9141 119.964C94.9141 119.696 95.1342 119.476 95.4024 119.476H108.275C108.543 119.476 108.763 119.696 108.763 119.964C108.763 120.233 108.543 120.452 108.275 120.452Z" fill="#699DEE"/>
<path d="M102.031 112.011H95.1467C94.8626 112.011 94.6289 111.778 94.6289 111.493V111.032C94.6289 110.748 94.8614 110.515 95.1467 110.515H102.031C102.315 110.515 102.549 110.747 102.549 111.032V111.493C102.549 111.778 102.315 112.011 102.031 112.011Z" fill="#699DEE"/>
<path d="M99.0444 18.92H89.4594C89.1273 18.92 88.8555 18.6483 88.8555 18.3165V18.0289C88.8555 17.697 89.1273 17.4254 89.4594 17.4254H99.0444C99.3765 17.4254 99.6483 17.697 99.6483 18.0289V18.3165C99.6495 18.6471 99.3777 18.92 99.0444 18.92Z" fill="#699DEE"/>
<path d="M99.1612 22.7461H89.3438C89.0756 22.7461 88.8555 22.5261 88.8555 22.2582C88.8555 21.9902 89.0756 21.7702 89.3438 21.7702H99.1612C99.4294 21.7702 99.6495 21.9902 99.6495 22.2582C99.6495 22.5261 99.4294 22.7461 99.1612 22.7461Z" fill="#699DEE"/>
<path d="M94.8146 25.0514H89.2294C89.024 25.0514 88.8555 24.883 88.8555 24.6777V24.4491C88.8555 24.2438 89.024 24.0754 89.2294 24.0754H94.8146C95.02 24.0754 95.1885 24.2438 95.1885 24.4491V24.6777C95.1885 24.8842 95.02 25.0514 94.8146 25.0514Z" fill="#699DEE"/>
<path d="M106.197 25.0511H97.1717C96.9135 25.0511 96.7031 24.8409 96.7031 24.5828V24.5447C96.7031 24.2866 96.9135 24.0764 97.1717 24.0764H106.197C106.455 24.0764 106.666 24.2866 106.666 24.5447V24.5828C106.666 24.8409 106.454 25.0511 106.197 25.0511Z" fill="#699DEE"/>
<path d="M114.634 22.7461H101.762C101.494 22.7461 101.273 22.5261 101.273 22.2582C101.273 21.9902 101.494 21.7702 101.762 21.7702H114.634C114.903 21.7702 115.123 21.9902 115.123 22.2582C115.121 22.5261 114.903 22.7461 114.634 22.7461Z" fill="#699DEE"/>
<path d="M108.394 18.9204H101.51C101.226 18.9204 100.992 18.6881 100.992 18.403V17.942C100.992 17.6581 101.225 17.4246 101.51 17.4246H108.394C108.678 17.4246 108.912 17.6569 108.912 17.942V18.403C108.912 18.6869 108.679 18.9204 108.394 18.9204Z" fill="#699DEE"/>
<path d="M107.522 83.5586H97.0289C96.6648 83.5586 96.3672 83.2611 96.3672 82.8973V82.5827C96.3672 82.2188 96.6648 81.9214 97.0289 81.9214H107.522C107.886 81.9214 108.183 82.2188 108.183 82.5827V82.8973C108.182 83.2611 107.884 83.5586 107.522 83.5586Z" fill="#ED7D2B"/>
<path d="M107.653 87.7478H96.9049C96.6109 87.7478 96.3711 87.5081 96.3711 87.2144C96.3711 86.9206 96.6109 86.6809 96.9049 86.6809H107.653C107.947 86.6809 108.187 86.9206 108.187 87.2144C108.187 87.5069 107.947 87.7478 107.653 87.7478Z" fill="#ED7D2B"/>
<path d="M102.892 90.272H96.7768C96.5517 90.272 96.3672 90.0876 96.3672 89.8627V89.6132C96.3672 89.3882 96.5517 89.2039 96.7768 89.2039H102.892C103.117 89.2039 103.302 89.3882 103.302 89.6132V89.8627C103.302 90.0876 103.117 90.272 102.892 90.272Z" fill="#ED7D2B"/>
<path d="M115.355 90.2717H105.474C105.192 90.2717 104.961 90.0406 104.961 89.7592V89.7174C104.961 89.4359 105.192 89.2048 105.474 89.2048H115.355C115.637 89.2048 115.868 89.4359 115.868 89.7174V89.7592C115.868 90.0406 115.638 90.2717 115.355 90.2717Z" fill="#ED7D2B"/>
<path d="M124.588 87.7478H110.495C110.201 87.7478 109.961 87.5081 109.961 87.2144C109.961 86.9206 110.201 86.6809 110.495 86.6809H124.588C124.881 86.6809 125.121 86.9206 125.121 87.2144C125.121 87.5069 124.881 87.7478 124.588 87.7478Z" fill="#ED7D2B"/>
<path d="M107.653 92.7965H96.9049C96.6109 92.7965 96.3711 92.5568 96.3711 92.2631C96.3711 91.9693 96.6109 91.7296 96.9049 91.7296H107.653C107.947 91.7296 108.187 91.9693 108.187 92.2631C108.187 92.5568 107.947 92.7965 107.653 92.7965Z" fill="#ED7D2B"/>
<path d="M124.588 92.7965H110.495C110.201 92.7965 109.961 92.5568 109.961 92.2631C109.961 91.9693 110.201 91.7296 110.495 91.7296H124.588C124.881 91.7296 125.121 91.9693 125.121 92.2631C125.121 92.5568 124.881 92.7965 124.588 92.7965Z" fill="#ED7D2B"/>
<path d="M107.65 95.4271H96.901C96.607 95.4271 96.3672 95.1874 96.3672 94.8937C96.3672 94.5999 96.607 94.3602 96.901 94.3602H107.65C107.943 94.3602 108.183 94.5999 108.183 94.8937C108.183 95.1874 107.943 95.4271 107.65 95.4271Z" fill="#ED7D2B"/>
<path d="M124.588 95.4271H110.495C110.201 95.4271 109.961 95.1874 109.961 94.8937C109.961 94.5999 110.201 94.3602 110.495 94.3602H124.588C124.881 94.3602 125.121 94.5999 125.121 94.8937C125.121 95.1874 124.881 95.4271 124.588 95.4271Z" fill="#ED7D2B"/>
<path d="M117.751 83.5588H110.215C109.904 83.5588 109.648 83.3044 109.648 82.9922V82.487C109.648 82.1761 109.903 81.9204 110.215 81.9204H117.753C118.064 81.9204 118.32 82.1748 118.32 82.487V82.9922C118.318 83.3044 118.064 83.5588 117.751 83.5588Z" fill="#ED7D2B"/>
<path d="M82.6655 11.1426L81.9362 11.665L81.2031 11.1476C81.3655 10.9189 81.6336 10.7678 81.9362 10.7678C82.2363 10.769 82.5032 10.9165 82.6655 11.1426Z" fill="white"/>
<path d="M81.9416 9.49506C81.2085 9.49506 80.5603 9.86011 80.168 10.4169L80.6304 10.7414C80.9219 10.3296 81.4016 10.0617 81.9416 10.0617C82.4778 10.0617 82.955 10.326 83.2453 10.7316L83.7065 10.4009C83.3117 9.85151 82.6672 9.49506 81.9416 9.49506Z" fill="white"/>
<path d="M81.9413 7.0733C80.3903 7.0733 79.0189 7.84351 78.1875 9.02155L78.6512 9.34585C79.3793 8.31522 80.5834 7.63959 81.9413 7.63959C83.2881 7.63959 84.4849 8.30416 85.2155 9.32128L85.6742 8.99084C84.8415 7.83 83.48 7.0733 81.9413 7.0733Z" fill="white"/>
<path d="M81.9342 8.39807C80.8309 8.39807 79.8531 8.94348 79.2578 9.77879L79.7203 10.1031C80.2135 9.41519 81.0216 8.96436 81.9342 8.96436C82.8394 8.96436 83.6426 9.40782 84.137 10.0859L84.5958 9.75791C83.9993 8.93365 83.0288 8.39807 81.9342 8.39807Z" fill="white"/>
<path d="M77.8438 88.2906C77.8438 89.3606 78.2041 90.3445 78.8117 91.1295C79.0134 91.3911 79.2422 91.6294 79.4931 91.8419C79.7428 92.0545 80.0146 92.2387 80.3049 92.3947C80.9605 92.7461 81.7083 92.9463 82.5053 92.9463C83.5003 92.9463 84.4203 92.6343 85.1767 92.1061C85.2149 92.0803 85.253 92.052 85.2899 92.025C85.6318 91.7695 85.9381 91.4697 86.1988 91.1307C86.8064 90.3445 87.1668 89.3606 87.1668 88.2919C87.1668 85.7208 85.0796 83.6375 82.5053 83.6375C79.931 83.6362 77.8438 85.7208 77.8438 88.2906Z" fill="white"/>
<path d="M83.7621 91.2776L83.3328 90.898C83.2972 90.9054 83.2615 90.9115 83.2258 90.9177C83.1483 90.8636 83.0635 90.8108 82.9749 90.7617C83.0032 90.5885 83.0266 90.4276 83.0463 90.2851C83.1115 89.7863 83.1188 89.4854 83.1188 89.4387C83.3464 89.4276 83.5001 89.4031 83.5001 89.4031C83.9306 89.3036 83.9515 87.8356 83.8519 87.0703C83.9331 87.0716 84.0118 87.0605 84.0917 87.0249C84.4177 86.8812 84.4361 86.3886 84.4361 86.3886C84.4361 86.3886 84.3414 86.5642 84.2024 86.6207C84.2024 86.6207 84.7473 85.8751 84.1151 85.3653C83.4854 84.8543 82.8421 85.1884 82.4756 85.2105C81.6712 85.2597 81.1509 85.3076 80.8889 85.8358C80.6294 86.3566 80.7315 87.7889 81.2284 88.3159C81.237 88.3651 81.2456 88.413 81.2518 88.4621C81.2813 88.6513 81.3502 88.8061 81.4486 88.9301C81.3366 89.5468 81.082 90.0074 80.8533 90.3133C80.6983 90.4337 80.5568 90.5885 80.4252 90.774C80.4215 90.7764 80.4166 90.7801 80.4166 90.7801C80.4166 90.7801 80.4178 90.7801 80.4203 90.7813C80.178 91.1253 79.9788 91.5737 79.8189 92.0994C79.8176 92.1019 79.8176 92.1043 79.8164 92.1068C80.0796 92.2923 80.365 92.4483 80.6663 92.5736C80.686 92.5822 80.7057 92.5895 80.7253 92.5981C80.7303 92.5994 80.734 92.6018 80.7389 92.6031C80.7708 92.6166 80.8041 92.6288 80.836 92.6411C80.9148 92.6718 80.9935 92.7001 81.0734 92.7259C81.1571 92.7529 81.2419 92.7775 81.3268 92.7996C81.3661 92.8094 81.4055 92.8193 81.4449 92.8278C81.4793 92.8364 81.5137 92.8438 81.5494 92.85C81.5543 92.8512 81.5593 92.8524 81.5642 92.8536C81.5875 92.8586 81.6109 92.8622 81.6343 92.8672C81.6884 92.877 81.7437 92.8868 81.7991 92.8954C81.8114 92.8966 81.8249 92.8991 81.8372 92.9003C81.868 92.9052 81.8975 92.9089 81.9282 92.9126C81.9713 92.9175 82.0143 92.9224 82.0574 92.9274C82.1053 92.9323 82.1545 92.936 82.2037 92.9384C82.2492 92.9421 82.296 92.9446 82.3427 92.9458C82.3907 92.947 82.4399 92.9482 82.4891 92.9482C82.542 92.9482 82.5936 92.947 82.6465 92.9458C82.6514 92.9458 82.6551 92.9458 82.6601 92.9445C82.6724 92.9445 82.6859 92.9445 82.6982 92.9433C82.724 92.9433 82.7498 92.9421 82.7757 92.9396C82.7794 92.9384 82.7818 92.9384 82.7855 92.9384C82.8347 92.936 82.8827 92.9323 82.9319 92.9274C83.5616 92.8684 84.1557 92.6817 84.6882 92.3967C84.4177 91.9336 84.0807 91.5724 83.7621 91.2776Z" fill="#699DEE"/>
<path d="M123.609 115.351C123.609 116.427 123.972 117.418 124.584 118.21C124.786 118.473 125.016 118.714 125.269 118.928C126.086 119.62 127.145 120.038 128.302 120.038C129.352 120.038 130.322 119.694 131.105 119.111C131.45 118.854 131.758 118.551 132.021 118.21C132.632 117.419 132.995 116.428 132.995 115.351C132.995 112.762 130.894 110.664 128.303 110.664C125.711 110.664 123.609 112.761 123.609 115.351Z" fill="white"/>
<path d="M130.697 118.006C130.691 117.994 130.684 117.981 130.674 117.97C130.655 117.943 130.629 117.917 130.599 117.893L130.597 117.892C130.538 117.844 130.458 117.801 130.366 117.763C130.363 117.761 130.36 117.76 130.356 117.759C129.949 117.581 129.414 117.523 129.414 117.523C129.262 117.5 129.141 117.485 129.085 117.479C128.927 117.352 128.716 116.85 128.681 116.08L128.682 116.082C128.682 116.082 128.858 115.674 129.091 115.802C129.454 116 130.155 115.199 129.931 114.146C129.906 114.033 129.877 113.929 129.845 113.834C129.921 113.866 130.006 113.893 130.086 113.893C130.296 113.893 130.615 113.355 130.658 113.175C130.702 112.994 130.654 112.401 130.365 112.225C130.083 112.052 129.637 112.251 129.617 112.258C129.761 112.057 130.253 112.097 130.343 112.107C129.194 111.869 128.957 112.605 128.937 112.671C128.206 112.011 127.091 113.151 126.817 113.456C126.798 113.472 126.78 113.489 126.761 113.508C126.699 113.543 126.628 113.603 126.555 113.692C126.411 113.866 126.365 114.089 126.365 114.301C126.365 114.679 126.51 115.03 126.51 115.03C126.577 115.667 126.761 116.457 127.056 116.48C127.056 116.48 127.161 116.481 127.318 116.468C127.318 116.475 127.32 116.481 127.32 116.489C127.325 116.596 127.328 116.716 127.329 116.836V116.909C127.331 117.23 127.311 117.534 127.238 117.572C127.214 117.575 127.193 117.576 127.175 117.578C127.145 117.58 127.09 117.587 127.09 117.587C126.834 117.62 126.652 117.646 126.523 117.668C126.267 117.711 126.203 117.742 126.14 117.791C126.125 117.804 126.111 117.82 126.096 117.838C125.909 117.979 125.566 118.301 125.266 118.926C126.084 119.619 127.143 120.036 128.299 120.036C129.35 120.036 130.319 119.693 131.102 119.109C130.97 118.653 130.834 118.264 130.697 118.006Z" fill="#F99746"/>
<path d="M123.609 21.1493C123.609 22.2254 123.972 23.2167 124.584 24.0078C124.786 24.2707 125.016 24.5114 125.269 24.7252C126.086 25.418 127.145 25.8357 128.302 25.8357C129.352 25.8357 130.322 25.4905 131.105 24.9082C131.45 24.6515 131.758 24.3481 132.021 24.0078C132.632 23.2167 132.995 22.2254 132.995 21.1493C132.995 18.5611 130.894 16.463 128.303 16.463C125.711 16.463 123.609 18.5611 123.609 21.1493Z" fill="white"/>
<path d="M130.697 23.8037C130.691 23.7914 130.684 23.7803 130.674 23.768C130.655 23.741 130.629 23.7152 130.599 23.6906L130.597 23.6894C130.538 23.6427 130.458 23.5997 130.366 23.5604C130.363 23.5592 130.36 23.558 130.356 23.5567C129.949 23.3799 129.414 23.3209 129.414 23.3209V23.3221C129.262 23.2976 129.141 23.2828 129.085 23.2767C129.047 23.246 129.006 23.1956 128.965 23.1231V23.1219C128.835 22.8934 128.707 22.4635 128.681 21.8775L128.682 21.88C128.682 21.88 128.858 21.4734 129.091 21.5999C129.454 21.7977 130.155 20.998 129.931 19.9452C129.906 19.831 129.877 19.7266 129.845 19.632C129.921 19.6639 130.006 19.691 130.086 19.691C130.296 19.691 130.615 19.1529 130.658 18.9736C130.702 18.7918 130.654 18.1985 130.365 18.0228C130.083 17.8508 129.637 18.0486 129.617 18.0572C129.761 17.8557 130.254 17.8963 130.343 17.9049C129.194 17.6666 128.957 18.4036 128.937 18.4687C128.206 17.8103 127.091 18.9502 126.817 19.2537C126.798 19.2696 126.78 19.2868 126.761 19.3052C126.699 19.3421 126.628 19.4011 126.555 19.4907C126.411 19.6639 126.365 19.8863 126.365 20.0988C126.365 20.4784 126.51 20.8272 126.51 20.8272C126.577 21.466 126.761 22.2546 127.056 22.278C127.056 22.278 127.161 22.2792 127.318 22.2669C127.318 22.2731 127.32 22.2792 127.32 22.2866C127.325 22.3935 127.328 22.5138 127.329 22.6354V22.7079C127.331 23.0285 127.311 23.332 127.238 23.3713C127.214 23.3725 127.193 23.3749 127.175 23.3762C127.145 23.3786 127.09 23.3848 127.09 23.3848C126.834 23.4179 126.652 23.4437 126.523 23.4658C126.267 23.5101 126.203 23.5396 126.14 23.5887C126.125 23.6034 126.111 23.6194 126.096 23.6354C125.909 23.7766 125.566 24.0997 125.266 24.725C125.31 24.763 125.355 24.7999 125.402 24.8355C125.41 24.8417 125.418 24.8478 125.426 24.8539C125.46 24.881 125.494 24.9068 125.53 24.9313C125.555 24.951 125.579 24.9694 125.605 24.9866C125.631 25.005 125.657 25.0222 125.683 25.0382C125.719 25.0652 125.758 25.0898 125.797 25.1131C125.823 25.1303 125.849 25.1463 125.876 25.1623C125.908 25.1819 125.941 25.2016 125.974 25.22C126.011 25.2409 126.048 25.2618 126.085 25.2814C126.088 25.2827 126.091 25.2851 126.095 25.2863C126.096 25.2876 126.098 25.2888 126.101 25.29H126.102C126.107 25.2925 126.113 25.2962 126.118 25.2986C126.148 25.3146 126.177 25.3293 126.207 25.3441C126.209 25.3441 126.21 25.3453 126.213 25.3465C126.221 25.3514 126.231 25.3564 126.24 25.36C126.256 25.3686 126.273 25.3772 126.29 25.3846C126.306 25.392 126.322 25.3994 126.339 25.408C126.376 25.4251 126.416 25.4423 126.454 25.4583C126.492 25.4743 126.531 25.4903 126.569 25.505C126.588 25.5124 126.605 25.5197 126.622 25.5259C126.639 25.532 126.657 25.5394 126.675 25.5455C126.711 25.559 126.748 25.5713 126.783 25.5836C126.822 25.5971 126.858 25.6082 126.897 25.6205C126.929 25.6303 126.961 25.6401 126.992 25.6499C126.996 25.6512 126.999 25.6512 127.002 25.6524C127.022 25.6585 127.043 25.6647 127.064 25.6696C127.176 25.7003 127.29 25.7273 127.406 25.7494C127.456 25.7593 127.507 25.7691 127.557 25.7765C127.571 25.7789 127.583 25.7814 127.596 25.7826C127.599 25.7826 127.603 25.7838 127.605 25.7838C127.606 25.7838 127.609 25.7838 127.61 25.7851C127.643 25.79 127.674 25.7937 127.708 25.7974C127.716 25.7986 127.722 25.7998 127.729 25.7998C127.734 25.801 127.739 25.801 127.744 25.8023C127.775 25.8072 127.805 25.8096 127.835 25.8121C127.84 25.8121 127.846 25.8133 127.851 25.8133C127.86 25.8145 127.869 25.8158 127.879 25.817C127.935 25.8219 127.989 25.8256 128.044 25.8281H128.053C128.07 25.8293 128.086 25.8305 128.104 25.8305C128.115 25.8305 128.125 25.8318 128.136 25.8318C128.19 25.8342 128.245 25.8354 128.299 25.8354C129.35 25.8354 130.319 25.4903 131.102 24.9068C130.97 24.451 130.834 24.0628 130.697 23.8037Z" fill="#F99746"/>
<path d="M187.286 207.259L170.383 215.999H159.13C156.417 214.182 142.325 204.582 136.494 197.425C135.259 195.908 130.739 182.838 127.266 172.226V172.221C127.727 173.63 137.42 194.249 140.18 196.593C142.94 198.935 157.431 212.581 161.434 212.443C165.311 212.31 185.949 207.566 187.228 207.272C187.248 207.269 187.266 207.264 187.286 207.259Z" fill="#EFA26F"/>
<path d="M221.303 215.998H160.363C163.42 214.8 175.113 210.338 187.234 207.271C187.254 207.267 187.272 207.262 187.292 207.258C197.702 204.628 208.419 203.033 214.239 205.425L214.281 205.487L221.303 215.998Z" fill="#B4CFF1"/>
<path d="M123.13 135.608C123.131 135.608 123.132 135.608 123.133 135.607C124.16 135.231 125.602 134.983 126.303 136.153C127.395 137.973 123.339 154.036 122.832 156.056L123.13 135.608Z" fill="#EFA26F"/>
<path d="M123.442 126.971L123.094 136.686C123.094 136.686 125.139 137.019 126.303 136.152C127.466 135.285 126.849 126.857 123.442 126.971Z" fill="#FFC197"/>
<path d="M82.5055 183.231C76.6497 184.43 64.0292 179.836 64.0292 179.836L66.0648 160.198L51.8035 176.511C44.5455 173.814 33.1943 166.775 26.4492 162.395C43.7325 160.513 56.6359 143.479 56.6359 143.479C68.6169 149.96 82.1402 153.745 82.1402 153.745C82.1353 165.417 82.5055 183.231 82.5055 183.231Z" fill="#B4CFF1"/>
<path d="M42.3204 165.397C42.3327 164.087 43.4052 163.036 44.7164 163.048C46.0275 163.06 47.0803 164.131 47.068 165.441C47.0557 166.75 45.9832 167.802 44.6721 167.79C43.361 167.777 42.3081 166.706 42.3204 165.397Z" fill="#F99746"/>
<path d="M65.9306 51.0353H64.3789V55.5826C64.3789 56.0032 64.4874 56.3547 64.7636 56.3547H65.9306H67.0978C67.3739 56.3547 67.4824 56.0032 67.4824 55.5826V51.0353H65.9306Z" fill="#39404A"/>
<path d="M50.0674 51.0353H51.6191V55.5826C51.6191 56.0032 51.5106 56.3547 51.2345 56.3547H50.0674H48.9003C48.6241 56.3547 48.5156 56.0032 48.5156 55.5826V51.0353H50.0674Z" fill="#39404A"/>
<path d="M65.9125 47.9199C65.9125 47.9199 64.4626 45.1435 64.0714 44.8149C63.6309 44.447 60.8298 44.1118 57.9992 44.1118C55.1686 44.1118 52.3675 44.4502 51.927 44.8149C51.5358 45.1402 50.0859 47.9199 50.0859 47.9199C50.0859 47.9199 48.2383 47.5847 48.2383 49.7763C48.2383 52.0828 48.544 54.7934 49.4744 54.7934C49.4744 54.7934 51.6442 54.7934 52.5516 54.7934C53.1927 54.7934 53.8305 54.4156 53.9982 54.4156C55.7833 54.4156 57.9992 54.4156 57.9992 54.4156C57.9992 54.4156 60.2183 54.4156 62.0002 54.4156C62.1679 54.4156 62.8057 54.7934 63.4468 54.7934C64.3574 54.7934 66.524 54.7934 66.524 54.7934C67.4511 54.7934 67.7601 52.0828 67.7601 49.7763C67.7601 47.5847 65.9125 47.9199 65.9125 47.9199Z" fill="#DD3B4A"/>
<path d="M57.9939 47.2462C61.2552 47.2462 64.0825 47.5353 65.5619 47.8278C64.8913 46.7402 64.1417 45.2584 63.9378 45.0908C63.6189 44.8444 61.0842 44.4698 57.9939 44.4698C54.9035 44.4698 52.3688 44.8444 52.0499 45.0908C51.846 45.2551 51.0965 46.7402 50.4258 47.8278C51.9052 47.5321 54.7358 47.2462 57.9939 47.2462Z" fill="white"/>
<path d="M65.8913 47.8748C66.0622 47.8452 66.4239 47.7696 66.8019 47.6184C67.3674 47.3915 67.4726 46.6945 67.3641 46.5729C67.2425 46.4381 66.3285 46.4677 66.0984 46.5302C65.934 46.5729 65.6907 46.997 65.5625 47.2469C65.7203 47.5526 65.8419 47.7827 65.8913 47.8748Z" fill="#39404A"/>
<path d="M50.1046 47.8748C49.9336 47.8452 49.572 47.7696 49.1939 47.6184C48.6284 47.3915 48.5232 46.6945 48.6317 46.5729C48.7534 46.4381 49.6673 46.4677 49.8974 46.5302C50.0618 46.5729 50.3051 46.997 50.4333 47.2469C50.2755 47.5526 50.1539 47.7827 50.1046 47.8748Z" fill="#39404A"/>
<path d="M62.2202 51.6487C62.1808 51.5502 62.1084 51.491 62.0295 51.491H57.9989H53.9683C53.8894 51.491 53.8171 51.5502 53.7776 51.6487C53.7382 51.7473 53.7415 51.8656 53.7842 51.9576C54.0998 52.6574 54.0867 53.4033 55.405 53.4033C55.7371 53.4033 57.9956 53.4033 57.9956 53.4033C57.9956 53.4033 60.2575 53.4033 60.5863 53.4033C61.9079 53.4033 61.8915 52.6574 62.2071 51.9576C62.2531 51.8656 62.2564 51.744 62.2202 51.6487Z" fill="white"/>
<path d="M55.4046 53.2599C54.4184 53.2599 54.2704 52.849 54.0633 52.2835C54.0173 52.1553 53.9712 52.0271 53.9121 51.8989C53.8858 51.8397 53.8825 51.7608 53.9088 51.6983C53.9252 51.6523 53.9548 51.6326 53.968 51.6326H62.0292C62.0423 51.6326 62.0686 51.6523 62.0883 51.6983C62.1114 51.7608 62.1114 51.8397 62.0851 51.8989C62.0259 52.0271 61.9799 52.1553 61.9338 52.2835C61.7267 52.8523 61.5788 53.2599 60.5925 53.2599H55.4046Z" fill="#39404A"/>
<path d="M65.9411 48.6452C66.5559 48.4415 66.8057 49.6079 66.2994 50.3373C65.734 51.1522 64.077 51.0733 63.985 50.978C63.8896 50.8827 64.6096 49.0888 65.9411 48.6452Z" fill="white"/>
<path d="M50.0476 48.6452C49.4328 48.4415 49.1829 49.6079 49.6892 50.3373C50.2547 51.1522 51.9116 51.0733 52.0037 50.978C52.099 50.8827 51.379 49.0888 50.0476 48.6452Z" fill="white"/>
<path d="M65.808 47.9922C63.7762 48.9319 63.3489 49.6909 62.6026 51.0905H62.5664C63.1878 49.635 63.911 48.7545 65.7225 47.8936L65.808 47.9922Z" fill="#39404A"/>
<path d="M50.1836 47.9922C52.2153 48.9319 52.6427 49.6909 53.389 51.0905H53.4252C52.8038 49.635 52.0805 48.7545 50.2691 47.8936L50.1836 47.9922Z" fill="#39404A"/>
<path d="M64.1573 51.5505C63.6773 51.5505 63.0954 53.4036 63.3124 53.4036C64.2757 53.4036 65.3014 53.3116 65.8373 53.1638C66.4981 52.9798 67.3397 51.1595 66.6986 51.2844L64.1573 51.5505Z" fill="white"/>
<path d="M63.4102 53.2588C63.4266 53.0025 63.66 52.2337 63.9592 51.8492C64.0512 51.731 64.1203 51.6915 64.1564 51.6915L66.7569 51.4188C66.78 51.432 66.8062 51.5272 66.7339 51.7638C66.5827 52.2599 66.1323 52.9335 65.797 53.0255C65.3071 53.1602 64.357 53.2555 63.4102 53.2588Z" fill="#39404A"/>
<path d="M51.8365 51.5505C52.3165 51.5505 52.8984 53.4036 52.6815 53.4036C51.7182 53.4036 50.6925 53.3116 50.1566 53.1638C49.4958 52.9798 48.6541 51.1595 49.2952 51.2844L51.8365 51.5505Z" fill="white"/>
<path d="M52.5865 53.2582C51.6397 53.2516 50.6896 53.1596 50.1964 53.0216C49.8644 52.9296 49.4107 52.256 49.2595 51.7599C49.1872 51.5233 49.2135 51.4281 49.2266 51.4149L51.8238 51.6876C51.8731 51.6876 51.9454 51.7303 52.0375 51.8486C52.3334 52.2363 52.5701 53.0052 52.5865 53.2582Z" fill="#39404A"/>
<path d="M61.9589 52.2865H54.0391V52.6087H61.9589V52.2865Z" fill="white"/>
</svg>
