<svg width="14" height="20" viewBox="0 0 14 20" fill="none" xmlns="http://www.w3.org/2000/svg">
<path d="M6.23185 18.9329L6.23172 18.9327C5.2388 17.5206 3.79432 15.3747 2.60012 13.2359C2.00287 12.1663 1.47333 11.1074 1.09434 10.149C0.711246 9.18019 0.5 8.35784 0.5 7.74705C0.5 4.20892 3.40354 1.3291 6.99909 1.3291H7.00088C10.5948 1.3291 13.5 4.20731 13.5 7.74705C13.5 8.35784 13.2887 9.18019 12.9056 10.149C12.5266 11.1074 11.9971 12.1663 11.3998 13.2359C10.2056 15.3747 8.76117 17.5206 7.76825 18.9327L7.76812 18.9328C7.39698 19.4612 6.60299 19.4612 6.23185 18.9329ZM3.74823 7.74705C3.74823 9.52996 5.20957 10.966 6.99909 10.966C8.78861 10.966 10.2499 9.52996 10.2499 7.74705C10.2499 5.96415 8.78861 4.52808 6.99909 4.52808C5.20957 4.52808 3.74823 5.96415 3.74823 7.74705Z" stroke="black"/>
</svg>
