<svg width="17" height="13" viewBox="0 0 17 13" fill="none" xmlns="http://www.w3.org/2000/svg">
<path d="M13.6562 0.829102C14.2778 0.829102 14.874 1.07223 15.3135 1.50501C15.753 1.93779 16 2.52476 16 3.13679V10.5214C16 11.1334 15.753 11.7204 15.3135 12.1532C14.874 12.586 14.2778 12.8291 13.6562 12.8291H3.34374C2.72214 12.8291 2.126 12.586 1.68647 12.1532C1.24693 11.7204 1 11.1334 1 10.5214V3.13679C1 2.52476 1.24693 1.93779 1.68647 1.50501C2.126 1.07223 2.72214 0.829102 3.34374 0.829102H13.6562ZM15.0625 4.48541L8.73811 8.15002C8.67832 8.18459 8.61148 8.20566 8.54242 8.21173C8.47336 8.2178 8.40379 8.2087 8.33873 8.1851L8.26186 8.15002L1.9375 4.48726V10.5214C1.9375 10.8886 2.08566 11.2408 2.34938 11.5005C2.6131 11.7601 2.97078 11.906 3.34374 11.906H13.6562C14.0292 11.906 14.3869 11.7601 14.6506 11.5005C14.9143 11.2408 15.0625 10.8886 15.0625 10.5214V4.48541ZM13.6562 1.75218H3.34374C2.97078 1.75218 2.6131 1.89806 2.34938 2.15772C2.08566 2.41739 1.9375 2.76957 1.9375 3.13679V3.41556L8.49998 7.21679L15.0625 3.41372V3.13679C15.0625 2.76957 14.9143 2.41739 14.6506 2.15772C14.3869 1.89806 14.0292 1.75218 13.6562 1.75218Z" fill="black" stroke="black" stroke-width="0.3"/>
</svg>
