<svg width="13" height="17" viewBox="0 0 13 17" fill="none" xmlns="http://www.w3.org/2000/svg">
<path d="M1.28757 4.93081C1.0482 3.31754 2.15982 1.86843 3.85795 1.33751C4.1593 1.24323 4.48443 1.27007 4.76712 1.41256C5.0498 1.55504 5.26876 1.80246 5.37937 2.10439L5.92453 3.59198C6.01229 3.83129 6.02816 4.09198 5.9701 4.34059C5.91204 4.5892 5.78271 4.81438 5.59869 4.98724L3.97701 6.50689C3.89707 6.58195 3.83751 6.67693 3.80412 6.78256C3.77074 6.88819 3.76467 7.00087 3.78651 7.10961L3.80155 7.1763L3.8404 7.34301C4.04208 8.15304 4.34938 8.93161 4.75401 9.65775C5.19479 10.4294 5.74179 11.1321 6.3782 11.7442L6.42833 11.7904C6.50929 11.8639 6.60749 11.9147 6.71335 11.9379C6.81921 11.961 6.92913 11.9557 7.03239 11.9225L9.12905 11.2467C9.36733 11.1701 9.62253 11.1681 9.8619 11.241C10.1013 11.3139 10.3139 11.4583 10.4725 11.6557L11.4651 12.8881C11.8786 13.4011 11.8285 14.1551 11.3535 14.6078C10.0539 15.8479 8.26683 16.1018 7.02362 15.0798C5.49972 13.8219 4.21506 12.2878 3.23384 10.5542C2.24465 8.8218 1.58391 6.91396 1.28631 4.93081H1.28757ZM5.10116 7.19425L6.44462 5.93237C6.81287 5.58681 7.07178 5.13651 7.18812 4.63929C7.30447 4.14206 7.27293 3.6206 7.09756 3.14186L6.55365 1.65427C6.33101 1.04672 5.89036 0.548911 5.32149 0.262266C4.75263 -0.0243789 4.09836 -0.0782845 3.492 0.111534C1.38281 0.771972 -0.310308 2.70712 0.0481167 5.12445C0.298764 6.8121 0.876504 8.95884 2.15104 11.2005C3.20966 13.0698 4.59542 14.7239 6.23909 16.08C8.1039 17.6125 10.5928 17.0893 12.2095 15.5478C12.6721 15.1071 12.9529 14.5023 12.9946 13.857C13.0363 13.2116 12.8357 12.5743 12.4338 12.0751L11.4413 10.8414C11.1237 10.447 10.6983 10.1587 10.2196 10.0134C9.74089 9.86809 9.23065 9.87241 8.75433 10.0258L7.01359 10.5862C6.56414 10.112 6.17046 9.58565 5.84056 9.01783C5.5219 8.44378 5.27356 7.83174 5.10116 7.19554V7.19425Z" fill="black"/>
</svg>
