<svg width="35" height="35" viewBox="0 0 35 35" fill="none" xmlns="http://www.w3.org/2000/svg">
<path d="M17.3989 0.132812C12.7005 0.132812 12.1109 0.153356 10.2656 0.237331C8.42389 0.321667 7.16677 0.613236 6.06679 1.04104C4.92897 1.4829 3.96379 2.07397 3.00221 3.0359C2.03991 3.99747 1.44884 4.96264 1.00553 6.10009C0.576643 7.20041 0.28471 8.45787 0.201815 10.2988C0.119281 12.1441 0.0976562 12.7341 0.0976562 17.4324C0.0976562 22.1307 0.11856 22.7185 0.202176 24.5638C0.286873 26.4055 0.578446 27.6626 1.00589 28.7625C1.44812 29.9003 2.03919 30.8655 3.00113 31.8271C3.96235 32.7894 4.92753 33.3819 6.06463 33.8237C7.16533 34.2515 8.4228 34.5431 10.2641 34.6274C12.1095 34.7114 12.6987 34.732 17.3967 34.732C22.0954 34.732 22.6832 34.7114 24.5285 34.6274C26.3702 34.5431 27.6288 34.2515 28.7295 33.8237C29.8669 33.3819 30.8307 32.7894 31.7919 31.8271C32.7542 30.8655 33.3453 29.9003 33.7886 28.7629C34.2139 27.6626 34.5058 26.4051 34.5923 24.5641C34.6752 22.7189 34.6968 22.1307 34.6968 17.4324C34.6968 12.7341 34.6752 12.1445 34.5923 10.2992C34.5058 8.45751 34.2139 7.20041 33.7886 6.10045C33.3453 4.96264 32.7542 3.99747 31.7919 3.0359C30.8296 2.07361 29.8673 1.48254 28.7284 1.04104C27.6255 0.613236 26.3677 0.321667 24.526 0.237331C22.6807 0.153356 22.0932 0.132812 17.3934 0.132812H17.3989ZM15.8469 3.25034C16.3075 3.24962 16.8215 3.25034 17.3989 3.25034C22.0179 3.25034 22.5654 3.26692 24.3894 3.34981C26.0761 3.42694 26.9916 3.70878 27.6014 3.94557C28.4087 4.25912 28.9843 4.63395 29.5894 5.23943C30.1949 5.84492 30.5697 6.42157 30.884 7.22888C31.1208 7.83797 31.403 8.75341 31.4798 10.4401C31.5627 12.2638 31.5807 12.8116 31.5807 17.4284C31.5807 22.0452 31.5627 22.5931 31.4798 24.4167C31.4026 26.1034 31.1208 27.0189 30.884 27.628C30.5705 28.4353 30.1949 29.0101 29.5894 29.6153C28.9839 30.2207 28.4091 30.5956 27.6014 30.9091C26.9923 31.147 26.0761 31.4281 24.3894 31.5052C22.5657 31.5881 22.0179 31.6062 17.3989 31.6062C12.7795 31.6062 12.232 31.5881 10.4083 31.5052C8.72159 31.4274 7.80614 31.1455 7.19596 30.9088C6.38864 30.5952 5.81198 30.2204 5.20649 29.6149C4.601 29.0094 4.22617 28.4342 3.91189 27.6265C3.6751 27.0174 3.3929 26.102 3.31613 24.4153C3.23324 22.5916 3.21666 22.0438 3.21666 17.4241C3.21666 12.8044 3.23324 12.2595 3.31613 10.4358C3.39326 8.74908 3.6751 7.83365 3.91189 7.22384C4.22545 6.41652 4.601 5.83987 5.20649 5.23439C5.81198 4.6289 6.38864 4.25408 7.19596 3.9398C7.80578 3.70193 8.72159 3.42081 10.4083 3.34333C12.0042 3.27124 12.6227 3.24962 15.8469 3.24602V3.25034ZM26.6333 6.12279C25.4872 6.12279 24.5574 7.05156 24.5574 8.19802C24.5574 9.34412 25.4872 10.274 26.6333 10.274C27.7794 10.274 28.7093 9.34412 28.7093 8.19802C28.7093 7.05192 27.7794 6.12207 26.6333 6.12207V6.12279ZM17.3989 8.54834C12.4926 8.54834 8.51471 12.5262 8.51471 17.4324C8.51471 22.3386 12.4926 26.3146 17.3989 26.3146C22.3051 26.3146 26.2816 22.3386 26.2816 17.4324C26.2816 12.5262 22.3048 8.54834 17.3985 8.54834H17.3989ZM17.3989 11.6659C20.5835 11.6659 23.1654 14.2475 23.1654 17.4324C23.1654 20.617 20.5835 23.1989 17.3989 23.1989C14.2139 23.1989 11.6323 20.617 11.6323 17.4324C11.6323 14.2475 14.2139 11.6659 17.3989 11.6659Z" fill="#D16527"/>
</svg>
