<svg width="26" height="25" viewBox="0 0 26 25" fill="none" xmlns="http://www.w3.org/2000/svg">
<path d="M8.4667 9.0441C10.173 13.2773 11.8528 14.9345 16.0458 16.6232L14.3338 19.1969C9.51316 17.0747 7.02621 13.3179 5.81721 10.3629L8.4667 9.0441Z" fill="#D16527"/>
<path d="M9.59555 3.08835C10.435 3.05835 11.0956 3.73663 11.0635 4.5295C11.013 5.7772 11.1375 6.67227 11.4311 7.77732C11.5924 8.38433 11.2913 9.01562 10.7942 9.43188C10.1241 9.99294 9.62092 10.6967 9.22246 11.3014C8.67017 12.1396 6.67793 12.144 6.20934 11.2649C5.24633 9.45837 4.52571 6.09653 5.77404 3.77001C5.97012 3.40456 6.38193 3.20316 6.8148 3.1877L9.59555 3.08835Z" fill="#D16527"/>
<path d="M22.7682 16.2649C22.8476 15.4749 22.1683 14.8133 21.3286 14.7985C20.0072 14.7752 19.0683 14.607 17.9171 14.2673C17.2848 14.0807 16.6005 14.3288 16.1324 14.774C15.5014 15.3742 14.7291 15.8087 14.0674 16.1502C13.1502 16.6235 13.0324 18.5023 13.9347 18.9942C15.7892 20.0052 19.3011 20.8758 21.8307 19.8306C22.2281 19.6664 22.4643 19.2895 22.5053 18.8821L22.7682 16.2649Z" fill="#D16527"/>
</svg>
