<svg width="30" height="47" viewBox="0 0 30 47" fill="none" xmlns="http://www.w3.org/2000/svg">
<mask id="path-1-inside-1_297_1152" fill="white">
<path d="M3.7206 26.8376C3.81654 27.2506 4.05645 27.6206 4.40133 27.8875C4.74621 28.1543 5.17579 28.3022 5.62023 28.3073H6.8199C7.3449 28.2984 7.8448 28.0919 8.21015 27.733C8.57549 27.3741 8.7765 26.8921 8.76915 26.3924V24.4345H10.9302V26.2575C10.9278 26.6747 11.0596 27.0826 11.308 27.4264C11.5563 27.7702 11.9093 28.0335 12.3194 28.1808C12.6738 29.4212 13.458 33.0713 11.1756 35.3479C11.0924 35.4275 11.0268 35.5221 10.9825 35.6261C10.9382 35.7301 10.9162 35.8415 10.9177 35.9537C10.9193 36.0659 10.9444 36.1767 10.9915 36.2796C11.0386 36.3825 11.1068 36.4754 11.1922 36.5528C11.2775 36.6303 11.3783 36.6908 11.4885 36.7307C11.5987 36.7706 11.7162 36.7892 11.834 36.7854C11.9519 36.7815 12.0678 36.7553 12.1749 36.7083C12.2819 36.6613 12.3781 36.5944 12.4577 36.5116C15.0661 33.9095 14.6187 30.1657 14.1792 28.3098H16.1665C18.567 32.0524 19.7933 36.3699 19.7009 40.7536C19.6946 40.868 19.7129 40.9824 19.7546 41.0898C19.7963 41.1972 19.8606 41.2954 19.9435 41.3784C20.0264 41.4614 20.1262 41.5275 20.2368 41.5726C20.3475 41.6177 20.4666 41.6408 20.5869 41.6407H22.8197V46.1568C22.8197 46.3804 22.913 46.5949 23.0792 46.753C23.2453 46.9112 23.4707 47 23.7057 47C23.9407 47 24.1661 46.9112 24.3322 46.753C24.4984 46.5949 24.5917 46.3804 24.5917 46.1568V41.639H26.8174C27.0446 41.6393 27.2633 41.5565 27.4282 41.4077C27.5931 41.259 27.6916 41.0556 27.7034 40.8396C27.8354 36.4592 26.7119 32.1272 24.4535 28.3081H24.8832C25.4454 28.2984 25.9805 28.0772 26.3717 27.6929C26.7629 27.3086 26.9783 26.7925 26.9707 26.2575V24.4345H28.228V26.0509C28.228 26.2746 28.3213 26.489 28.4875 26.6472C28.6536 26.8053 28.879 26.8941 29.114 26.8941C29.349 26.8941 29.5743 26.8053 29.7405 26.6472C29.9067 26.489 30 26.2746 30 26.0509V21.1317C30 20.9081 29.9067 20.6937 29.7405 20.5355C29.5743 20.3774 29.349 20.2886 29.114 20.2886C28.879 20.2886 28.6536 20.3774 28.4875 20.5355C28.3213 20.6937 28.228 20.9081 28.228 21.1317V22.749H26.9742V20.926C26.9818 20.391 26.7665 19.8749 26.3753 19.4906C25.9841 19.1063 25.4489 18.8851 24.8868 18.8754H13.0212C12.4592 18.8853 11.9242 19.1067 11.5332 19.4909C11.1422 19.8752 10.927 20.3912 10.9346 20.926V22.749H8.77269V20.7894C8.77319 20.5344 8.72068 20.2819 8.61819 20.0463C8.5157 19.8107 8.36525 19.5967 8.17552 19.4167L8.69473 17.1198C8.8675 17.1342 9.03939 17.1485 9.21127 17.1485C10.3591 17.1466 11.4827 16.8346 12.4515 16.2488C13.1941 15.8002 13.8342 15.2137 14.3333 14.5244C14.8325 13.8351 15.1806 13.0571 15.3567 12.2369L17.0543 4.71988L18.1229 4.96356C18.1908 4.97874 18.2604 4.98638 18.3302 4.98633C18.5445 4.98298 18.7503 4.90579 18.9094 4.76907C19.0685 4.63236 19.1702 4.44538 19.1955 4.24281C19.2208 4.04023 19.1681 3.83579 19.0471 3.66739C18.9261 3.49898 18.7451 3.37802 18.5375 3.32693L16.5883 2.88257L11.2987 1.67343L4.05995 0.0233078C3.83142 -0.0289093 3.59046 0.00740538 3.39007 0.124263C3.18968 0.24112 3.04627 0.428948 2.9914 0.646426C2.93653 0.863904 2.97469 1.09322 3.09749 1.28392C3.22028 1.47463 3.41765 1.6111 3.64617 1.66331L4.75547 1.91627L3.04899 9.47295C2.70453 10.9285 2.90843 12.4529 3.62507 13.7799C4.3417 15.1069 5.52551 16.1521 6.96964 16.7328L6.48587 18.8754H5.62111C5.1768 18.8804 4.74732 19.0282 4.40245 19.2949C4.05759 19.5616 3.8176 19.9313 3.72149 20.3442L0.331567 22.9336C0.228085 23.0127 0.144568 23.1128 0.0871804 23.2266C0.0297927 23.3404 0 23.4651 0 23.5913C0 23.7176 0.0297927 23.8422 0.0871804 23.9561C0.144568 24.0699 0.228085 24.17 0.331567 24.249L3.7206 26.8376ZM25.9597 39.9518H21.5022C21.4463 35.8709 20.3193 31.8681 18.2239 28.3073H22.4006C24.6444 31.8229 25.8725 35.8402 25.9606 39.9526L25.9597 39.9518ZM12.7066 20.926C12.6987 20.8382 12.7271 20.751 12.7859 20.6829C12.8447 20.6148 12.9291 20.5713 13.0212 20.5618H24.8868C24.979 20.5711 25.0636 20.6145 25.1226 20.6826C25.1816 20.7507 25.2101 20.8381 25.2022 20.926V26.2575C25.2101 26.3454 25.1816 26.4328 25.1226 26.5009C25.0636 26.569 24.979 26.6124 24.8868 26.6218H13.0212C12.9291 26.6122 12.8447 26.5687 12.7859 26.5006C12.7271 26.4325 12.6987 26.3453 12.7066 26.2575V20.926ZM4.78117 9.82709L6.47878 2.3092L15.3319 4.3278L13.629 11.8836C13.5017 12.4838 13.2486 13.0533 12.8848 13.5582C12.5209 14.0631 12.0538 14.493 11.5114 14.8222C11.0272 15.1166 10.4856 15.315 9.91895 15.4056C9.35231 15.4961 8.77228 15.4769 8.21361 15.3491C7.00147 15.0308 5.96635 14.2774 5.32615 13.2475C4.68594 12.2175 4.49057 10.9914 4.78117 9.82709ZM5.62023 20.5618H6.8199C6.87398 20.5718 6.92215 20.6007 6.95494 20.6428C6.98773 20.685 7.00277 20.7373 6.99711 20.7894V26.3924C7.0028 26.4447 6.98779 26.4971 6.95501 26.5393C6.92223 26.5816 6.87405 26.6107 6.8199 26.6209H5.62111C5.52277 26.6209 5.43948 26.5164 5.43948 26.3924V20.7894C5.43948 20.6663 5.521 20.5618 5.62023 20.5618ZM3.66744 22.5517V24.6394L2.30119 23.5956L3.66744 22.5517Z"/>
</mask>
<path d="M3.7206 26.8376C3.81654 27.2506 4.05645 27.6206 4.40133 27.8875C4.74621 28.1543 5.17579 28.3022 5.62023 28.3073H6.8199C7.3449 28.2984 7.8448 28.0919 8.21015 27.733C8.57549 27.3741 8.7765 26.8921 8.76915 26.3924V24.4345H10.9302V26.2575C10.9278 26.6747 11.0596 27.0826 11.308 27.4264C11.5563 27.7702 11.9093 28.0335 12.3194 28.1808C12.6738 29.4212 13.458 33.0713 11.1756 35.3479C11.0924 35.4275 11.0268 35.5221 10.9825 35.6261C10.9382 35.7301 10.9162 35.8415 10.9177 35.9537C10.9193 36.0659 10.9444 36.1767 10.9915 36.2796C11.0386 36.3825 11.1068 36.4754 11.1922 36.5528C11.2775 36.6303 11.3783 36.6908 11.4885 36.7307C11.5987 36.7706 11.7162 36.7892 11.834 36.7854C11.9519 36.7815 12.0678 36.7553 12.1749 36.7083C12.2819 36.6613 12.3781 36.5944 12.4577 36.5116C15.0661 33.9095 14.6187 30.1657 14.1792 28.3098H16.1665C18.567 32.0524 19.7933 36.3699 19.7009 40.7536C19.6946 40.868 19.7129 40.9824 19.7546 41.0898C19.7963 41.1972 19.8606 41.2954 19.9435 41.3784C20.0264 41.4614 20.1262 41.5275 20.2368 41.5726C20.3475 41.6177 20.4666 41.6408 20.5869 41.6407H22.8197V46.1568C22.8197 46.3804 22.913 46.5949 23.0792 46.753C23.2453 46.9112 23.4707 47 23.7057 47C23.9407 47 24.1661 46.9112 24.3322 46.753C24.4984 46.5949 24.5917 46.3804 24.5917 46.1568V41.639H26.8174C27.0446 41.6393 27.2633 41.5565 27.4282 41.4077C27.5931 41.259 27.6916 41.0556 27.7034 40.8396C27.8354 36.4592 26.7119 32.1272 24.4535 28.3081H24.8832C25.4454 28.2984 25.9805 28.0772 26.3717 27.6929C26.7629 27.3086 26.9783 26.7925 26.9707 26.2575V24.4345H28.228V26.0509C28.228 26.2746 28.3213 26.489 28.4875 26.6472C28.6536 26.8053 28.879 26.8941 29.114 26.8941C29.349 26.8941 29.5743 26.8053 29.7405 26.6472C29.9067 26.489 30 26.2746 30 26.0509V21.1317C30 20.9081 29.9067 20.6937 29.7405 20.5355C29.5743 20.3774 29.349 20.2886 29.114 20.2886C28.879 20.2886 28.6536 20.3774 28.4875 20.5355C28.3213 20.6937 28.228 20.9081 28.228 21.1317V22.749H26.9742V20.926C26.9818 20.391 26.7665 19.8749 26.3753 19.4906C25.9841 19.1063 25.4489 18.8851 24.8868 18.8754H13.0212C12.4592 18.8853 11.9242 19.1067 11.5332 19.4909C11.1422 19.8752 10.927 20.3912 10.9346 20.926V22.749H8.77269V20.7894C8.77319 20.5344 8.72068 20.2819 8.61819 20.0463C8.5157 19.8107 8.36525 19.5967 8.17552 19.4167L8.69473 17.1198C8.8675 17.1342 9.03939 17.1485 9.21127 17.1485C10.3591 17.1466 11.4827 16.8346 12.4515 16.2488C13.1941 15.8002 13.8342 15.2137 14.3333 14.5244C14.8325 13.8351 15.1806 13.0571 15.3567 12.2369L17.0543 4.71988L18.1229 4.96356C18.1908 4.97874 18.2604 4.98638 18.3302 4.98633C18.5445 4.98298 18.7503 4.90579 18.9094 4.76907C19.0685 4.63236 19.1702 4.44538 19.1955 4.24281C19.2208 4.04023 19.1681 3.83579 19.0471 3.66739C18.9261 3.49898 18.7451 3.37802 18.5375 3.32693L16.5883 2.88257L11.2987 1.67343L4.05995 0.0233078C3.83142 -0.0289093 3.59046 0.00740538 3.39007 0.124263C3.18968 0.24112 3.04627 0.428948 2.9914 0.646426C2.93653 0.863904 2.97469 1.09322 3.09749 1.28392C3.22028 1.47463 3.41765 1.6111 3.64617 1.66331L4.75547 1.91627L3.04899 9.47295C2.70453 10.9285 2.90843 12.4529 3.62507 13.7799C4.3417 15.1069 5.52551 16.1521 6.96964 16.7328L6.48587 18.8754H5.62111C5.1768 18.8804 4.74732 19.0282 4.40245 19.2949C4.05759 19.5616 3.8176 19.9313 3.72149 20.3442L0.331567 22.9336C0.228085 23.0127 0.144568 23.1128 0.0871804 23.2266C0.0297927 23.3404 0 23.4651 0 23.5913C0 23.7176 0.0297927 23.8422 0.0871804 23.9561C0.144568 24.0699 0.228085 24.17 0.331567 24.249L3.7206 26.8376ZM25.9597 39.9518H21.5022C21.4463 35.8709 20.3193 31.8681 18.2239 28.3073H22.4006C24.6444 31.8229 25.8725 35.8402 25.9606 39.9526L25.9597 39.9518ZM12.7066 20.926C12.6987 20.8382 12.7271 20.751 12.7859 20.6829C12.8447 20.6148 12.9291 20.5713 13.0212 20.5618H24.8868C24.979 20.5711 25.0636 20.6145 25.1226 20.6826C25.1816 20.7507 25.2101 20.8381 25.2022 20.926V26.2575C25.2101 26.3454 25.1816 26.4328 25.1226 26.5009C25.0636 26.569 24.979 26.6124 24.8868 26.6218H13.0212C12.9291 26.6122 12.8447 26.5687 12.7859 26.5006C12.7271 26.4325 12.6987 26.3453 12.7066 26.2575V20.926ZM4.78117 9.82709L6.47878 2.3092L15.3319 4.3278L13.629 11.8836C13.5017 12.4838 13.2486 13.0533 12.8848 13.5582C12.5209 14.0631 12.0538 14.493 11.5114 14.8222C11.0272 15.1166 10.4856 15.315 9.91895 15.4056C9.35231 15.4961 8.77228 15.4769 8.21361 15.3491C7.00147 15.0308 5.96635 14.2774 5.32615 13.2475C4.68594 12.2175 4.49057 10.9914 4.78117 9.82709ZM5.62023 20.5618H6.8199C6.87398 20.5718 6.92215 20.6007 6.95494 20.6428C6.98773 20.685 7.00277 20.7373 6.99711 20.7894V26.3924C7.0028 26.4447 6.98779 26.4971 6.95501 26.5393C6.92223 26.5816 6.87405 26.6107 6.8199 26.6209H5.62111C5.52277 26.6209 5.43948 26.5164 5.43948 26.3924V20.7894C5.43948 20.6663 5.521 20.5618 5.62023 20.5618ZM3.66744 22.5517V24.6394L2.30119 23.5956L3.66744 22.5517Z" fill="#343434" stroke="#343434" stroke-width="4" mask="url(#path-1-inside-1_297_1152)"/>
</svg>
