<svg width="22" height="47" viewBox="0 0 22 47" fill="none" xmlns="http://www.w3.org/2000/svg">
<path fill-rule="evenodd" clip-rule="evenodd" d="M13 19L10.4797 34H3L7.25768 19H13Z" fill="#343434"/>
<path fill-rule="evenodd" clip-rule="evenodd" d="M0 6H22V0H0V6Z" fill="#343434"/>
<path fill-rule="evenodd" clip-rule="evenodd" d="M0 10H22V8H0V10Z" fill="#343434"/>
<path fill-rule="evenodd" clip-rule="evenodd" d="M10.9958 16C9.91262 16 9.02364 15.1313 9 14.0461V13.9996C9 12.8915 9.89742 12 10.9958 12C12.1017 12 13 12.8915 13 13.9996C13 14.3489 12.9063 14.6822 12.7518 14.9681C12.404 15.5881 11.7539 16 10.9958 16ZM0 11V21H5.51223L6.36611 17.916C6.36611 17.5322 6.64324 17.2226 7.00575 17.2226H15.0152C15.3707 17.2226 15.6556 17.5322 15.6556 17.916L16.6151 21H22V11H0Z" fill="#343434"/>
<path fill-rule="evenodd" clip-rule="evenodd" d="M5.5 45C3.01973 45 1 42.987 1 40.5004C1 38.0137 3.01973 36 5.5 36C7.98682 36 10 38.0137 10 40.5004C10 42.987 7.98682 45 5.5 45ZM0 47H12V35H0V47Z" fill="#343434"/>
<path fill-rule="evenodd" clip-rule="evenodd" d="M6.49877 43.6281C4.95163 43.6281 3.65209 42.4932 3.37333 41H2C2.28532 43.2548 4.19322 45 6.49877 45C8.80596 45 10.7147 43.2548 11 41H9.62421C9.34709 42.4932 8.04755 43.6281 6.49877 43.6281ZM6.49877 37.3791C8.04755 37.3791 9.34709 38.5062 9.62421 40H11C10.7147 37.7448 8.80596 36 6.49877 36C4.19322 36 2.28532 37.7448 2 40H3.37333C3.65209 38.5062 4.95163 37.3791 6.49877 37.3791Z" fill="#343434"/>
</svg>
