<svg width="46" height="46" viewBox="0 0 46 46" fill="none" xmlns="http://www.w3.org/2000/svg">
<path d="M46 23C46 23.2905 45.8846 23.5691 45.6792 23.7745C45.4738 23.9798 45.1952 24.0952 44.9048 24.0952H38.7868L41.2992 26.6055C41.5049 26.8112 41.6204 27.0901 41.6204 27.381C41.6204 27.6718 41.5049 27.9507 41.2992 28.1564C41.0936 28.362 40.8147 28.4776 40.5238 28.4776C40.233 28.4776 39.954 28.362 39.7484 28.1564L35.6894 24.0952H25.6439L32.7476 31.199H38.4889C38.7793 31.199 39.0579 31.3143 39.2633 31.5197C39.4687 31.7251 39.5841 32.0037 39.5841 32.2942C39.5841 32.5847 39.4687 32.8632 39.2633 33.0686C39.0579 33.274 38.7793 33.3894 38.4889 33.3894H34.9381L39.2643 37.7156C39.4638 37.9222 39.5742 38.1988 39.5717 38.486C39.5692 38.7732 39.454 39.0479 39.2509 39.2509C39.0479 39.454 38.7732 39.5692 38.486 39.5717C38.1988 39.5742 37.9222 39.4638 37.7156 39.2643L33.3872 34.9359V38.4889C33.3872 38.7793 33.2718 39.0579 33.0664 39.2633C32.861 39.4687 32.5825 39.5841 32.292 39.5841C32.0015 39.5841 31.7229 39.4687 31.5175 39.2633C31.3122 39.0579 31.1968 38.7793 31.1968 38.4889V32.7454L24.0952 25.6439V35.6894L28.1564 39.7484C28.362 39.954 28.4776 40.233 28.4776 40.5238C28.4776 40.8147 28.362 41.0936 28.1564 41.2992C27.9507 41.5049 27.6718 41.6204 27.381 41.6204C27.0901 41.6204 26.8112 41.5049 26.6055 41.2992L24.0952 38.7868V44.9048C24.0952 45.1952 23.9798 45.4738 23.7745 45.6792C23.5691 45.8846 23.2905 46 23 46C22.7095 46 22.4309 45.8846 22.2255 45.6792C22.0202 45.4738 21.9048 45.1952 21.9048 44.9048V38.7868L19.3945 41.2992C19.1888 41.5049 18.9099 41.6204 18.619 41.6204C18.3282 41.6204 18.0493 41.5049 17.8436 41.2992C17.638 41.0936 17.5224 40.8147 17.5224 40.5238C17.5224 40.233 17.638 39.954 17.8436 39.7484L21.9048 35.6894V25.6439L14.8032 32.7454V38.4889C14.8032 38.7793 14.6878 39.0579 14.4824 39.2633C14.2771 39.4687 13.9985 39.5841 13.708 39.5841C13.4175 39.5841 13.1389 39.4687 12.9335 39.2633C12.7282 39.0579 12.6128 38.7793 12.6128 38.4889V34.9359L8.28438 39.2643C8.18335 39.3689 8.0625 39.4523 7.92887 39.5097C7.79525 39.5671 7.65153 39.5973 7.50611 39.5986C7.36068 39.5999 7.21646 39.5722 7.08186 39.5171C6.94726 39.462 6.82497 39.3807 6.72214 39.2779C6.6193 39.175 6.53798 39.0527 6.48291 38.9181C6.42784 38.7835 6.40013 38.6393 6.40139 38.4939C6.40266 38.3485 6.43287 38.2048 6.49027 38.0711C6.54767 37.9375 6.63111 37.8167 6.73571 37.7156L11.0619 33.3894H7.51114C7.22067 33.3894 6.94209 33.274 6.73669 33.0686C6.5313 32.8632 6.4159 32.5847 6.4159 32.2942C6.4159 32.0037 6.5313 31.7251 6.73669 31.5197C6.94209 31.3143 7.22067 31.199 7.51114 31.199H13.2524L20.3561 24.0952H10.3106L6.25162 28.1564C6.04596 28.362 5.76703 28.4776 5.47619 28.4776C5.18535 28.4776 4.90642 28.362 4.70076 28.1564C4.49511 27.9507 4.37957 27.6718 4.37957 27.381C4.37957 27.0901 4.49511 26.8112 4.70076 26.6055L7.21324 24.0952H1.09524C0.804763 24.0952 0.526185 23.9798 0.320788 23.7745C0.115391 23.5691 0 23.2905 0 23C0 22.7095 0.115391 22.4309 0.320788 22.2255C0.526185 22.0202 0.804763 21.9048 1.09524 21.9048H7.21324L4.70076 19.3945C4.49511 19.1888 4.37957 18.9099 4.37957 18.619C4.37957 18.3282 4.49511 18.0493 4.70076 17.8436C4.90642 17.638 5.18535 17.5224 5.47619 17.5224C5.76703 17.5224 6.04596 17.638 6.25162 17.8436L10.3106 21.9048H20.3561L13.2524 14.801H7.51114C7.22067 14.801 6.94209 14.6857 6.73669 14.4803C6.5313 14.2749 6.4159 13.9963 6.4159 13.7058C6.4159 13.4153 6.5313 13.1368 6.73669 12.9314C6.94209 12.726 7.22067 12.6106 7.51114 12.6106H11.0619L6.73571 8.28657C6.63111 8.18554 6.54767 8.06469 6.49027 7.93106C6.43287 7.79744 6.40266 7.65372 6.40139 7.5083C6.40013 7.36287 6.42784 7.21865 6.48291 7.08405C6.53798 6.94945 6.6193 6.82716 6.72214 6.72433C6.82497 6.62149 6.94726 6.54017 7.08186 6.4851C7.21646 6.43003 7.36068 6.40232 7.50611 6.40358C7.65153 6.40485 7.79525 6.43506 7.92887 6.49246C8.0625 6.54986 8.18335 6.6333 8.28438 6.73791L12.6128 11.0641V7.51114C12.6128 7.36731 12.6411 7.22489 12.6961 7.09201C12.7512 6.95913 12.8318 6.83839 12.9335 6.73669C13.0353 6.63499 13.156 6.55432 13.2889 6.49927C13.4218 6.44423 13.5642 6.4159 13.708 6.4159C13.8518 6.4159 13.9942 6.44423 14.1271 6.49927C14.26 6.55432 14.3807 6.63499 14.4824 6.73669C14.5842 6.83839 14.6648 6.95913 14.7199 7.09201C14.7749 7.22489 14.8032 7.36731 14.8032 7.51114V13.2546L21.9048 20.3561V10.3106L17.8436 6.25162C17.7418 6.14979 17.661 6.0289 17.6059 5.89585C17.5508 5.7628 17.5224 5.6202 17.5224 5.47619C17.5224 5.33218 17.5508 5.18958 17.6059 5.05653C17.661 4.92348 17.7418 4.80259 17.8436 4.70076C17.9454 4.59893 18.0663 4.51815 18.1994 4.46304C18.3324 4.40793 18.475 4.37957 18.619 4.37957C18.7631 4.37957 18.9057 4.40793 19.0387 4.46304C19.1718 4.51815 19.2926 4.59893 19.3945 4.70076L21.9048 7.21324V1.09524C21.9048 0.804763 22.0202 0.526185 22.2255 0.320788C22.4309 0.115391 22.7095 0 23 0C23.2905 0 23.5691 0.115391 23.7745 0.320788C23.9798 0.526185 24.0952 0.804763 24.0952 1.09524V7.21324L26.6055 4.70076C26.7074 4.59893 26.8282 4.51815 26.9613 4.46304C27.0943 4.40793 27.2369 4.37957 27.381 4.37957C27.525 4.37957 27.6676 4.40793 27.8006 4.46304C27.9337 4.51815 28.0546 4.59893 28.1564 4.70076C28.2582 4.80259 28.339 4.92348 28.3941 5.05653C28.4492 5.18958 28.4776 5.33218 28.4776 5.47619C28.4776 5.6202 28.4492 5.7628 28.3941 5.89585C28.339 6.0289 28.2582 6.14979 28.1564 6.25162L24.0952 10.3106V20.3561L31.1968 13.2546V7.51114C31.1968 7.22067 31.3122 6.94209 31.5175 6.73669C31.7229 6.5313 32.0015 6.4159 32.292 6.4159C32.5825 6.4159 32.861 6.5313 33.0664 6.73669C33.2718 6.94209 33.3872 7.22067 33.3872 7.51114V11.0641L37.7156 6.73791C37.9222 6.5384 38.1988 6.428 38.486 6.4305C38.7732 6.43299 39.0479 6.54818 39.2509 6.75125C39.454 6.95431 39.5692 7.22901 39.5717 7.51618C39.5742 7.80335 39.4638 8.08001 39.2643 8.28657L34.9381 12.6106H38.4889C38.7793 12.6106 39.0579 12.726 39.2633 12.9314C39.4687 13.1368 39.5841 13.4153 39.5841 13.7058C39.5841 13.9963 39.4687 14.2749 39.2633 14.4803C39.0579 14.6857 38.7793 14.801 38.4889 14.801H32.7476L25.6439 21.9048H35.6894L39.7484 17.8436C39.954 17.638 40.233 17.5224 40.5238 17.5224C40.8147 17.5224 41.0936 17.638 41.2992 17.8436C41.5049 18.0493 41.6204 18.3282 41.6204 18.619C41.6204 18.9099 41.5049 19.1888 41.2992 19.3945L38.7868 21.9048H44.9048C45.1952 21.9048 45.4738 22.0202 45.6792 22.2255C45.8846 22.4309 46 22.7095 46 23Z" fill="#343434"/>
</svg>
