<svg width="24" height="20" viewBox="0 0 24 20" fill="none" xmlns="http://www.w3.org/2000/svg">
<path d="M9.53097 17.8948C8.83343 17.8948 8.95196 17.6346 8.71139 16.9784L6.66016 10.3081L22.4496 1.05273" fill="#D16527" fill-opacity="0.5"/>
<path d="M8.76953 18.9468C9.34369 18.9468 9.59738 18.7107 9.91786 18.4306L12.9801 15.7541L9.16034 13.6836" fill="#D16527" fill-opacity="0.5"/>
<path d="M9.41989 13.1987L18.0021 19.7276C18.9814 20.284 19.6883 19.9959 19.9322 18.7913L23.4256 1.84053C23.7833 0.364013 22.879 -0.305667 21.9421 0.132307L1.42892 8.27688C0.0287045 8.85517 0.0368676 9.65954 1.17369 10.018L6.43783 11.7097L18.6249 3.79286C19.2002 3.43363 19.7282 3.62676 19.2949 4.02281" fill="#D16527"/>
</svg>
