<svg width="46" height="46" viewBox="0 0 46 46" fill="none" xmlns="http://www.w3.org/2000/svg">
<path fill-rule="evenodd" clip-rule="evenodd" d="M16.6299 14.7073C17.0354 14.7073 17.4495 14.859 17.7536 15.1645L22.6275 19.9265L24 18.5855L17.6756 12.4064C19.0637 9.6787 18.9077 6.31865 16.9972 3.65194C15.1248 1.0538 12.0601 -0.226217 9.04216 0.032835L13.0746 5.6474C13.6275 6.42531 13.4326 7.48438 12.645 8.02534L8.2865 11.0197C7.49108 11.5599 6.40634 11.3778 5.85345 10.5999L1.81317 4.97767C0.542831 7.67486 0.72999 10.9275 2.59299 13.5256C4.80848 16.6045 8.70761 17.8312 12.2238 16.8483L19.0013 23.4694L20.3808 22.1284L15.5069 17.3664C14.8838 16.7561 14.8838 15.774 15.5069 15.1645C15.8118 14.859 16.2244 14.7073 16.6299 14.7073ZM44.4199 32.4176C42.2141 29.3196 38.305 28.0354 34.7455 28.9428L28.1043 22.5298L26.702 23.8831L31.1622 28.1884C31.7984 28.8044 31.7984 29.7955 31.1622 30.4115C30.8436 30.719 30.4296 30.8728 30.0067 30.8728C29.5926 30.8728 29.1793 30.719 28.86 30.4115L24.4015 26.0977L23 27.4587L29.0671 33.3173C27.5788 36.0701 27.6735 39.5004 29.6173 42.2379C31.4966 44.883 34.6181 46.1972 37.7078 45.975L33.6458 40.2617C33.0892 39.4766 33.2963 38.4162 34.1077 37.8695L38.5917 34.8944C39.4039 34.3562 40.5108 34.5561 41.0754 35.3327L45.1286 41.046C46.4584 38.347 46.3 35.0551 44.4199 32.4176Z" fill="#343434"/>
<path fill-rule="evenodd" clip-rule="evenodd" d="M21.5653 30.7627C21.3005 31.0527 20.8694 31.0527 20.6047 30.7627L16.1991 25.9372C15.9336 25.6464 15.9336 25.1758 16.1991 24.885L16.4352 24.6263C16.6993 24.3363 17.1304 24.3363 17.3959 24.6263L21.8014 29.4526C22.0662 29.7427 22.0662 30.2148 21.8014 30.5048L21.5653 30.7627Z" fill="#343434"/>
<path fill-rule="evenodd" clip-rule="evenodd" d="M19 31.9886L8.42428 43.3904L7.12044 44.7939C6.71371 45.1959 6.2525 45.4986 5.74601 45.6958C5.3623 45.8559 4.97092 45.9462 4.57263 45.9773C4.44217 45.9924 4.31171 46 4.17358 46C3.10687 46.0069 2.0394 45.6056 1.22594 44.8007C-0.408648 43.1856 -0.408648 40.5753 1.22594 38.9678L14.1722 27.2246L19 31.9886Z" fill="#343434"/>
<path fill-rule="evenodd" clip-rule="evenodd" d="M41 7.46259L38.9662 10.6034L37.1646 11.358L21.0035 27.2253L19 25.2589L35.168 9.39161L35.9368 7.63103L39.137 5.63342L39.3071 5.80186L36.9471 7.73773C36.5348 8.14167 36.7211 9.01053 37.1335 9.42209C37.5598 9.83366 38.4684 10.0768 38.8885 9.66598L40.8222 7.28806L41 7.46259Z" fill="#343434"/>
</svg>
