<svg width="41" height="46" viewBox="0 0 41 46" fill="none" xmlns="http://www.w3.org/2000/svg">
<path d="M5.85027 32.8057H3.64856C1.63557 32.8057 0 34.3651 0 36.2842V42.5215C0 44.4407 1.63557 46 3.64856 46H5.85027C7.86326 46 9.49881 44.4407 9.49881 42.5215V41.6219H18.2427C18.8089 42.1617 19.6267 42.4615 20.4444 42.4615C21.2622 42.4615 22.0171 42.1617 22.6462 41.6219H31.3901V42.5215C31.3901 44.4407 33.0257 46 35.0386 46H37.2404C39.2533 46 40.8889 44.4407 40.8889 42.5215V36.2842C40.8889 34.3651 39.2533 32.8057 37.2404 32.8057H35.0386C33.0257 32.8057 31.3901 34.3651 31.3901 36.2842V37.0039H22.8978V32.206H23.8414C24.3446 32.206 24.785 31.7862 24.785 31.3064V23.9296C24.785 23.4498 24.3446 23.03 23.8414 23.03H22.8978V8.81616H31.3901V9.71577C31.3901 11.6349 33.0257 13.1943 35.0386 13.1943H37.2404C39.2533 13.1943 40.8889 11.6349 40.8889 9.71577V3.47849C40.8889 1.55932 39.2533 0 37.2404 0H35.0386C33.0257 0 31.3901 1.55932 31.3901 3.47849V4.19817H22.5833C22.0171 3.71838 21.2622 3.47849 20.5074 3.47849C19.7525 3.47849 18.9976 3.71838 18.4315 4.19817H9.62463V3.47849C9.62463 1.55932 7.98906 0 5.97607 0H3.77436C1.76137 0 0.12582 1.55932 0.12582 3.47849V9.71577C0.12582 11.6349 1.76137 13.1943 3.77436 13.1943H5.97607C7.98906 13.1943 9.62463 11.6349 9.62463 9.71577V8.81616H18.054V23.03H16.6701C16.1668 23.03 15.7265 23.4498 15.7265 23.9296V31.3664C15.7265 31.8462 16.1668 32.266 16.6701 32.266H18.054V37.0639H9.56172V36.3442C9.56172 34.425 7.92617 32.8057 5.85027 32.8057ZM7.67454 42.5815C7.67454 43.5411 6.85677 44.2608 5.91318 44.2608H5.72445V42.2816C5.72445 41.8018 5.28411 41.382 4.78086 41.382C4.27761 41.382 3.83727 41.8018 3.83727 42.2816V44.2608H3.64856C2.64206 44.2608 1.88718 43.4811 1.88718 42.5815V36.3442C1.88718 35.3846 2.70497 34.6649 3.64856 34.6649H3.83727V36.6441C3.83727 37.1239 4.27761 37.5437 4.78086 37.5437C5.28411 37.5437 5.72445 37.1239 5.72445 36.6441V34.6649H5.91318C6.91967 34.6649 7.67454 35.4446 7.67454 36.3442V37.9635V40.7223V42.5815ZM33.2144 36.3442C33.2144 35.3846 34.0321 34.6649 34.9757 34.6649H35.1645V36.6441C35.1645 37.1239 35.6048 37.5437 36.1081 37.5437C36.6113 37.5437 37.0516 37.1239 37.0516 36.6441V34.6649H37.2404C38.2468 34.6649 39.0017 35.4446 39.0017 36.3442V42.5815C39.0017 43.5411 38.1839 44.2608 37.2404 44.2608H37.0516V42.2816C37.0516 41.8018 36.6113 41.382 36.1081 41.382C35.6048 41.382 35.1645 41.8018 35.1645 42.2816V44.2608H35.0386C34.0321 44.2608 33.2773 43.4811 33.2773 42.5815V40.7823V37.9635V36.3442H33.2144ZM22.8349 30.4668H21.8913H21.1993V24.8892H21.8913H22.8349V30.4668ZM33.2144 3.53847C33.2144 2.57888 34.0321 1.8592 34.9757 1.8592H35.1645V3.83834C35.1645 4.31813 35.6048 4.73795 36.1081 4.73795C36.6113 4.73795 37.0516 4.31813 37.0516 3.83834V1.8592H37.2404C38.2468 1.8592 39.0017 2.63886 39.0017 3.53847V9.77575C39.0017 10.7353 38.1839 11.455 37.2404 11.455H37.0516V9.47588C37.0516 8.99609 36.6113 8.57627 36.1081 8.57627C35.6048 8.57627 35.1645 8.99609 35.1645 9.47588V11.455H35.0386C34.0321 11.455 33.2773 10.6754 33.2773 9.77575V7.97653V5.21773V3.53847H33.2144ZM7.67454 9.83573C7.67454 10.7953 6.85677 11.515 5.91318 11.515H5.72445V9.53586C5.72445 9.05607 5.28411 8.63625 4.78086 8.63625C4.27761 8.63625 3.83727 9.05607 3.83727 9.53586V11.515H3.64856C2.64206 11.515 1.88718 10.7353 1.88718 9.83573V3.59844C1.88718 2.63885 2.70497 1.91916 3.64856 1.91916H3.83727V3.89831C3.83727 4.3781 4.27761 4.79791 4.78086 4.79791C5.28411 4.79791 5.72445 4.3781 5.72445 3.89831V1.91916H5.91318C6.91967 1.91916 7.67454 2.69883 7.67454 3.59844V5.21773V7.97653V9.83573ZM19.5638 7.67666C19.438 7.61669 19.3751 7.49675 19.3121 7.43677C19.1234 7.19688 18.8718 7.07692 18.5573 7.07692H9.49881V6.11734H18.6831C18.9347 6.11734 19.1863 5.99739 19.3751 5.81747C19.8783 5.2777 20.8219 5.2777 21.388 5.81747C21.5768 5.99739 21.8284 6.11734 22.08 6.11734H31.2643V7.07692H22.2058C21.8913 7.07692 21.6397 7.19688 21.4509 7.43677C21.388 7.49675 21.3251 7.61669 21.1993 7.67666C21.0106 7.85659 20.8848 8.09648 20.8848 8.39635V23.09H20.1928H19.9412V8.39635C19.9412 8.09648 19.8154 7.85659 19.5638 7.67666ZM17.6137 24.8892H18.9976H19.3121V30.4668H18.9976H17.6137V24.8892ZM18.6831 38.8631C18.9976 38.8631 19.2492 38.7432 19.438 38.5033C19.5009 38.4433 19.5638 38.3833 19.6267 38.3233C19.8154 38.1434 20.0041 37.9035 20.0041 37.6036V32.206H20.3186H21.0106V37.6036C21.0106 37.9035 21.1364 38.1434 21.388 38.3233C21.4509 38.3833 21.5139 38.4433 21.5768 38.5033C21.7655 38.6832 22.0171 38.8631 22.3316 38.8631H31.453V39.8227H22.3316C22.08 39.8227 21.7655 39.9426 21.5768 40.1226C21.0735 40.7223 20.0041 40.7223 19.5009 40.1226C19.3121 39.9426 19.0605 39.8227 18.746 39.8227H9.62463V38.8631H18.6831Z" fill="#343434"/>
</svg>
