<svg width="36" height="35" viewBox="0 0 36 35" fill="none" xmlns="http://www.w3.org/2000/svg">
<path d="M23.304 0.132812C32.9918 0.132812 35.2984 2.43942 35.2984 12.1272V22.7376C35.2984 32.4254 32.9918 34.732 23.304 34.732H12.6936C3.00583 34.732 0.699219 32.4254 0.699219 22.7376V12.1272C0.699219 2.43942 3.00583 0.132812 12.6936 0.132812H23.304Z" fill="#D16527"/>
<path d="M9.69078 11.2041H7.11687C6.38147 11.2041 6.23438 11.547 6.23438 11.9251C6.23438 12.6004 7.10699 15.9495 10.2974 20.379C12.4243 23.404 15.421 25.0438 18.1479 25.0438C19.784 25.0438 19.9864 24.6796 19.9864 24.0522V21.7659C19.9864 21.0375 20.1414 20.8922 20.6595 20.8922C21.0413 20.8922 21.6957 21.0812 23.2228 22.5397C24.968 24.2683 25.2557 25.0438 26.2373 25.0438H28.8112C29.5466 25.0438 29.9144 24.6796 29.7022 23.9608C29.4701 23.2445 28.6369 22.2052 27.5313 20.9732C26.9313 20.271 26.0315 19.5147 25.7587 19.1365C25.377 18.6504 25.4861 18.4343 25.7587 18.0022L25.8046 17.9379C26.1924 17.3919 28.9181 13.5206 29.2219 12.1412C29.3855 11.601 29.2219 11.2041 28.4435 11.2041H25.8696C25.2152 11.2041 24.9135 11.547 24.7498 11.9251C24.7498 11.9251 23.4409 15.0852 21.5866 17.1379C20.9867 17.7321 20.714 17.9211 20.3868 17.9211C20.2232 17.9211 19.9864 17.7321 19.9864 17.1919V12.1412C19.9864 11.493 19.7964 11.2041 19.251 11.2041H15.2063C14.7973 11.2041 14.5514 11.505 14.5514 11.7901C14.5514 12.4046 15.4784 12.5463 15.574 14.2749V18.0292C15.574 18.8523 15.4239 19.0016 15.0967 19.0016C14.2241 19.0016 12.1016 15.8274 10.8427 12.1952C10.596 11.4893 10.3486 11.2041 9.69078 11.2041Z" fill="#EBDED5"/>
</svg>
