<svg width="43" height="44" viewBox="0 0 43 44" fill="none" xmlns="http://www.w3.org/2000/svg">
<mask id="mask0_297_2118" style="mask-type:alpha" maskUnits="userSpaceOnUse" x="4" y="0" width="35" height="36">
<path fill-rule="evenodd" clip-rule="evenodd" d="M11.9471 33.1151L12.5862 33.4942C15.2731 35.0881 18.3529 35.9314 21.4932 35.9326H21.5003C31.1458 35.9326 38.9962 28.0849 39 18.439C39.0018 13.7648 37.1833 9.36955 33.8793 6.063C30.5752 2.75625 26.1815 0.934136 21.5072 0.932617C11.8543 0.932617 4.00385 8.77956 4 18.4247C3.99868 21.7303 4.92384 24.9494 6.67561 27.7345L7.0917 28.3965L5.32383 34.8519L11.9471 33.1151ZM32.1075 23.4451C31.976 23.2256 31.6254 23.0941 31.0993 22.8309C30.5732 22.5676 27.9867 21.2954 27.5045 21.1197C27.0222 20.9444 26.6715 20.8568 26.3208 21.3831C25.9702 21.9095 24.962 23.0941 24.655 23.4451C24.3482 23.7961 24.0413 23.84 23.5153 23.5768C22.9892 23.3136 21.294 22.7582 19.2846 20.9665C17.7206 19.572 16.6648 17.8499 16.3579 17.3234C16.0511 16.797 16.3252 16.5123 16.5885 16.2502C16.8252 16.0144 17.1147 15.6359 17.3777 15.3288C17.6408 15.0218 17.7284 14.8023 17.9038 14.4514C18.0792 14.1004 17.9915 13.7934 17.86 13.5302C17.7284 13.2668 16.6763 10.6782 16.238 9.62521C15.8108 8.59984 15.3771 8.73866 15.0542 8.72246C14.7477 8.70727 14.3967 8.70392 14.046 8.70392C13.6952 8.70392 13.1253 8.83545 12.6431 9.36206C12.1608 9.88846 10.8018 11.1609 10.8018 13.7493C10.8018 16.3379 12.6869 18.8384 12.95 19.1895C13.213 19.5406 16.6596 24.8522 21.937 27.1304C23.1922 27.6723 24.1721 27.9958 24.9361 28.2382C26.1965 28.6384 27.3432 28.582 28.2497 28.4465C29.2605 28.2956 31.3623 27.1743 31.8007 25.946C32.2391 24.7174 32.2391 23.6645 32.1075 23.4451Z" fill="#D16527"/>
</mask>
<g mask="url(#mask0_297_2118)">
<path d="M67.9358 -14.5674H-13.4414V66.8098H67.9358V-14.5674Z" fill="#D16527"/>
</g>
</svg>
