<svg width="21" height="21" viewBox="0 0 21 21" fill="none" xmlns="http://www.w3.org/2000/svg">
<mask id="mask0_297_2787" style="mask-type:alpha" maskUnits="userSpaceOnUse" x="0" y="0" width="21" height="21">
<path fill-rule="evenodd" clip-rule="evenodd" d="M4.6807 18.6385L5.05085 18.8581C6.60695 19.7812 8.39064 20.2696 10.2093 20.2703H10.2134C15.7996 20.2703 20.3462 15.7252 20.3484 10.1388C20.3495 7.43174 19.2963 4.88626 17.3827 2.97126C15.4692 1.05616 12.9245 0.000879593 10.2175 0C4.62697 0 0.0803549 4.54456 0.0781258 10.1306C0.0773632 12.045 0.613169 13.9093 1.62771 15.5223L1.86869 15.9057L0.84482 19.6444L4.6807 18.6385ZM16.3566 13.0381C16.2805 12.911 16.0774 12.8348 15.7727 12.6824C15.468 12.5299 13.97 11.7931 13.6908 11.6914C13.4115 11.5899 13.2083 11.5391 13.0052 11.8439C12.8022 12.1488 12.2183 12.8348 12.0405 13.0381C11.8628 13.2414 11.685 13.2668 11.3804 13.1144C11.0757 12.962 10.094 12.6403 8.93021 11.6026C8.02443 10.795 7.41295 9.79767 7.2352 9.49274C7.05752 9.18787 7.21625 9.02298 7.36877 8.87116C7.50586 8.73465 7.67351 8.5154 7.82586 8.33754C7.9782 8.15975 8.02894 8.03261 8.13054 7.82943C8.23208 7.62613 8.18128 7.44833 8.10514 7.29587C8.02894 7.14335 7.41963 5.64417 7.16575 5.03432C6.91838 4.44048 6.66719 4.52087 6.48018 4.51149C6.30267 4.50269 6.09935 4.50076 5.89627 4.50076C5.69313 4.50076 5.36304 4.57693 5.08376 4.88191C4.80448 5.18678 4.01737 5.92371 4.01737 7.42277C4.01737 8.922 5.10916 10.3702 5.2615 10.5735C5.41385 10.7768 7.40995 13.8531 10.4664 15.1724C11.1933 15.4863 11.7608 15.6736 12.2033 15.814C12.9332 16.0458 13.5974 16.0132 14.1224 15.9347C14.7078 15.8473 15.925 15.1979 16.1789 14.4865C16.4328 13.7749 16.4328 13.1652 16.3566 13.0381Z" fill="#D16527"/>
</mask>
<g mask="url(#mask0_297_2787)">
<path d="M26.8353 -6.48633H-7.21875V27.5677H26.8353V-6.48633Z" fill="#D16527"/>
</g>
</svg>
