<svg width="47" height="47" viewBox="0 0 47 47" fill="none" xmlns="http://www.w3.org/2000/svg">
<path fill-rule="evenodd" clip-rule="evenodd" d="M37.0462 37.3759L35.5597 38.7098C35.1579 39.0159 34.6839 39.3695 34.1696 39.6989C33.575 40.1087 32.9643 40.4615 32.3697 40.7435C29.6779 42.1577 26.6003 42.913 23.4826 42.913H23.4344C20.2524 42.905 17.2311 42.1416 14.4429 40.6471L12.6832 39.5945C12.1689 39.2562 11.7752 38.9677 11.4296 38.6785L11.4136 38.6704L11.2529 38.5579L9.91177 37.3285L9.82258 37.2393C6.10222 33.5279 4.06125 28.6264 4.08616 23.4276C4.09339 22.2947 4.19785 21.226 4.39874 20.1573C4.51123 19.4253 4.65667 18.7664 4.84068 18.1485C4.96121 17.7307 5.12192 17.2879 5.26655 16.8709L5.35494 16.6299C5.63618 15.8585 5.91741 15.2478 6.23882 14.6853C9.05119 9.09284 14.467 5.19577 20.7104 4.29503C21.3613 4.19137 22.0363 4.13513 22.6952 4.12709C22.9121 4.10218 23.1379 4.09415 23.3709 4.09415C23.3709 4.09415 23.5718 4.08691 23.579 4.08691C23.8924 4.08691 24.1656 4.09415 24.4629 4.13513C24.9692 4.14316 25.5959 4.19941 26.4235 4.3119C32.6429 5.26086 38.0354 9.1973 40.863 14.846C41.2246 15.5773 41.4898 16.1799 41.6826 16.7496C41.8996 17.2237 42.0531 17.7869 42.1888 18.3092C42.4058 19.0163 42.5585 19.7154 42.6396 20.3421C42.8076 21.3055 42.904 22.4072 42.912 23.5642C42.8879 28.8193 40.8068 33.7207 37.0462 37.3759ZM23.5849 0.000229771C10.6389 -0.0566223 0.0481546 10.444 0.000236349 23.3908C-0.0574279 36.3531 10.444 46.9519 23.4063 46.9998C36.345 47.0494 46.9349 36.5561 46.9999 23.5938C47.0405 10.6397 36.548 0.0489601 23.5849 0.000229771Z" fill="#343434"/>
<path fill-rule="evenodd" clip-rule="evenodd" d="M35.1116 36L29 25.5195L39.8019 21C39.9519 21.8988 40.0072 22.8232 39.9993 23.7302C39.9914 28.3808 38.2542 32.7346 35.1116 36ZM33.9749 37.0775C33.5653 37.3714 33.1808 37.6735 32.7126 37.9673C32.7043 37.9673 32.6959 37.9837 32.6876 38L26 28.9633C26.4932 28.702 26.9446 28.3755 27.3459 28L34 37.0441C33.9916 37.0612 33.9916 37.0612 33.9749 37.0775ZM23.5118 41C20.8458 40.9838 18.2974 40.3372 16 39.1007L23.4882 30L31 39.1734C28.6947 40.3938 26.155 41 23.5118 41ZM14.2876 38L14.2378 37.9507C13.8141 37.6957 13.4071 37.3914 13.0748 37.1127L13 37.0543L19.6791 28C20.0696 28.3857 20.5182 28.7155 21 28.9704L14.2876 38ZM11.7793 36C8.68755 32.6922 6.98434 28.3432 7.00011 23.7063C7.00799 22.8069 7.09473 21.9158 7.22878 21L7.33917 21.0404L18 25.6205L11.7793 36ZM7.02346 18.4495C7.14479 17.9853 7.30657 17.5212 7.47643 17.0651C7.48452 17.0562 7.49261 17.0163 7.50879 17L18 20.4853C17.7573 20.9577 17.5875 21.4699 17.4742 22L7 18.5147C7.00728 18.4984 7.01618 18.4731 7.02346 18.4495ZM21 7L20.1686 18.9919V19H20.1601L9 16.0224C11.4342 11.2061 15.8827 7.8461 21 7ZM20 23C19.4504 23 19 22.5566 19 22.0036C19 21.4434 19.4504 21 20 21C20.5495 21 21 21.4434 21 22.0036C21 22.5566 20.5495 23 20 23ZM21.0009 26C21.5495 26 22 26.4434 22 27.0036C22 27.5566 21.5495 28 21.0009 28C20.4504 28 20 27.5566 20 27.0036C20 26.4434 20.4504 26 21.0009 26ZM23.4959 21C24.878 21 26 22.1226 26 23.5045C26 24.8782 24.878 26 23.4959 26C22.122 26 21 24.8782 21 23.5045C21 22.1226 22.122 21 23.4959 21ZM24 18C24.5586 18 25 18.4434 25 19.0036C25 19.5566 24.5586 20 24 20C23.4505 20 23 19.5566 23 19.0036C23 18.4434 23.4505 18 24 18ZM23.0689 7.03297C23.1456 7.01688 23.2233 7.00884 23.2913 7.00884C23.4951 7 23.6893 7 23.9029 7H24.1942C24.3883 7 24.6117 7 24.9612 7.03297H25L24.9515 18C24.6311 17.9598 24.301 17.9437 23.9709 17.9437C23.6408 17.9437 23.3204 17.9598 23 18L23.0689 7.03297ZM27 27.0036C27 27.5566 26.5584 28 25.9995 28C25.4507 28 25 27.5566 25 27.0036C25 26.4434 25.4507 26 25.9995 26C26.5584 26 27 26.4434 27 27.0036ZM29 22.0036C29 22.5566 28.5495 23 28 23C27.4505 23 27 22.5566 27 22.0036C27 21.4434 27.4505 21 28 21C28.5495 21 29 21.4434 29 22.0036ZM38 16.1018L26.7646 19L26 7C31.1347 7.8711 35.5735 11.2741 38 16.1018ZM39.5471 18.1252C39.7331 18.5811 39.8795 19.0867 39.9919 19.5169C39.9919 19.5343 39.9919 19.5343 40 19.5509L29.4934 23C29.3963 22.4604 29.2265 21.9465 29 21.4657L39.5066 18C39.5228 18.0506 39.5228 18.0746 39.5471 18.1252ZM41.7364 20.4558C41.6565 19.8175 41.4968 19.1625 41.305 18.5395C41.1772 18.0362 41.0414 17.533 40.8258 17.0529C40.6101 16.4387 40.3385 15.8396 40.0509 15.2557C37.4149 9.99244 32.3345 6.13428 26.3035 5.21487C25.6565 5.12781 25.0015 5.05592 24.3624 5.03994C24.0988 5.00719 23.8512 5 23.5876 5C23.3 5.00719 23.0284 5 22.7648 5.03994C22.1178 5.04793 21.4628 5.10384 20.8397 5.1997C14.8007 6.06958 9.68041 9.8806 7.03637 15.1366C6.70087 15.7198 6.44525 16.3109 6.2136 16.9339C6.04585 17.4132 5.86212 17.9164 5.71834 18.4117C5.53461 19.0267 5.39962 19.6658 5.29497 20.32C5.10326 21.344 5.0074 22.3657 5.00021 23.4281C4.97545 28.5715 7.09228 33.2284 10.4712 36.5921L10.5351 36.656L11.8691 37.8782L11.925 37.9021C12.3165 38.2376 12.7478 38.5412 13.1632 38.8128L14.8726 39.8432C17.4208 41.2091 20.3205 41.9919 23.4358 41.9999C26.5112 42.0079 29.4188 41.265 31.975 39.9231C32.5661 39.6435 33.1421 39.3 33.6765 38.9326C34.1238 38.645 34.5472 38.3335 34.9554 38.0212L36.4084 36.7207C39.8273 33.397 41.976 28.7328 42 23.5719C41.992 22.5167 41.9121 21.471 41.7364 20.4558Z" fill="#343434"/>
</svg>
